<svg width="25" height="25" viewBox="0 0 25 25" fill="none" xmlns="http://www.w3.org/2000/svg">
<path d="M8.18745 11.4998C7.63517 11.4998 7.18747 11.9476 7.1875 12.4998C7.18753 13.0521 7.63526 13.4998 8.18755 13.4998L8.18745 11.4998ZM16.8125 13.4994C17.3648 13.4994 17.8125 13.0516 17.8125 12.4993C17.8125 11.9471 17.3647 11.4994 16.8125 11.4994L16.8125 13.4994ZM11.5003 16.8125C11.5002 17.3647 11.9479 17.8125 12.5002 17.8125C13.0525 17.8125 13.5002 17.3648 13.5003 16.8125L11.5003 16.8125ZM13.5007 8.18755C13.5007 7.63526 13.053 7.18753 12.5007 7.1875C11.9485 7.18747 11.5007 7.63517 11.5007 8.18745L13.5007 8.18755ZM2 12.5C2 10.4233 2.61581 8.39323 3.76957 6.66652L2.10663 5.55538C0.733112 7.61099 0 10.0277 0 12.5H2ZM3.76957 6.66652C4.92332 4.9398 6.5632 3.59399 8.48182 2.79927L7.71646 0.951511C5.43238 1.89761 3.48015 3.49976 2.10663 5.55538L3.76957 6.66652ZM8.48182 2.79927C10.4004 2.00455 12.5116 1.79661 14.5484 2.20176L14.9386 0.240189C12.5139 -0.242126 10.0005 0.00541568 7.71646 0.951511L8.48182 2.79927ZM14.5484 2.20176C16.5852 2.6069 18.4562 3.60693 19.9246 5.07538L21.3388 3.66117C19.5907 1.91301 17.3634 0.722504 14.9386 0.240189L14.5484 2.20176ZM19.9246 5.07538C21.3931 6.54383 22.3931 8.41476 22.7982 10.4516L24.7598 10.0614C24.2775 7.63661 23.087 5.40933 21.3388 3.66117L19.9246 5.07538ZM22.7982 10.4516C23.2034 12.4884 22.9955 14.5996 22.2007 16.5182L24.0485 17.2835C24.9946 14.9995 25.2421 12.4861 24.7598 10.0614L22.7982 10.4516ZM22.2007 16.5182C21.406 18.4368 20.0602 20.0767 18.3335 21.2304L19.4446 22.8934C21.5002 21.5199 23.1024 19.5676 24.0485 17.2835L22.2007 16.5182ZM18.3335 21.2304C16.6068 22.3842 14.5767 23 12.5 23V25C14.9723 25 17.389 24.2669 19.4446 22.8934L18.3335 21.2304ZM12.5 23C9.71523 23 7.04451 21.8938 5.07538 19.9246L3.66116 21.3388C6.00537 23.683 9.18479 25 12.5 25V23ZM5.07538 19.9246C3.10625 17.9555 2 15.2848 2 12.5H0C0 15.8152 1.31696 18.9946 3.66116 21.3388L5.07538 19.9246ZM8.18755 13.4998C12.7062 13.4996 12.4903 13.4996 12.5011 13.4996L12.4999 11.4996C12.4899 11.4996 12.7068 11.4996 8.18745 11.4998L8.18755 13.4998ZM12.5005 13.4996L16.8125 13.4994L16.8125 11.4994L12.5004 11.4996L12.5005 13.4996ZM13.5003 16.8125L13.5005 12.4996L11.5005 12.4995L11.5003 16.8125L13.5003 16.8125ZM13.5005 12.4996L13.5007 8.18755L11.5007 8.18745L11.5005 12.4995L13.5005 12.4996Z" fill="white"/>
</svg>
