<svg width="34" height="34" viewBox="0 0 34 34" fill="none" xmlns="http://www.w3.org/2000/svg">
<path d="M1.83398 9.25C1.14363 9.25 0.583984 9.80964 0.583984 10.5C0.583984 11.1904 1.14363 11.75 1.83398 11.75L1.83398 9.25ZM6.16732 11.75C6.85767 11.75 7.41732 11.1904 7.41732 10.5C7.41732 9.80964 6.85767 9.25 6.16732 9.25V11.75ZM1.83398 15.75C1.14363 15.75 0.583984 16.3096 0.583984 17C0.583984 17.6904 1.14363 18.25 1.83398 18.25L1.83398 15.75ZM6.16732 18.25C6.85767 18.25 7.41732 17.6904 7.41732 17C7.41732 16.3096 6.85767 15.75 6.16732 15.75V18.25ZM1.83398 22.25C1.14363 22.25 0.583984 22.8096 0.583984 23.5C0.583984 24.1904 1.14363 24.75 1.83398 24.75L1.83398 22.25ZM6.16732 24.75C6.85767 24.75 7.41732 24.1904 7.41732 23.5C7.41732 22.8096 6.85767 22.25 6.16732 22.25L6.16732 24.75ZM7.41732 27.8333L7.41732 6.16666L4.91732 6.16666L4.91732 27.8333H7.41732ZM10.5007 3.08333L27.834 3.08333V0.583328L10.5007 0.583328V3.08333ZM30.9173 6.16666V27.8333H33.4173V6.16666H30.9173ZM27.834 30.9167L10.5007 30.9167V33.4167H27.834V30.9167ZM30.9173 27.8333C30.9173 29.5362 29.5369 30.9167 27.834 30.9167V33.4167C30.9176 33.4167 33.4173 30.9169 33.4173 27.8333H30.9173ZM27.834 3.08333C29.5369 3.08333 30.9173 4.46378 30.9173 6.16666H33.4173C33.4173 3.08307 30.9176 0.583328 27.834 0.583328V3.08333ZM7.41732 6.16666C7.41732 4.46378 8.79777 3.08333 10.5007 3.08333V0.583328C7.41706 0.583328 4.91732 3.08307 4.91732 6.16666L7.41732 6.16666ZM4.91732 27.8333C4.91732 30.9169 7.41706 33.4167 10.5007 33.4167V30.9167C8.79777 30.9167 7.41732 29.5362 7.41732 27.8333H4.91732ZM1.83398 11.75H6.16732V9.25H1.83398L1.83398 11.75ZM1.83398 18.25H6.16732V15.75H1.83398L1.83398 18.25ZM1.83398 24.75H6.16732L6.16732 22.25H1.83398L1.83398 24.75ZM22.2507 12.6667C22.2507 14.3695 20.8702 15.75 19.1673 15.75V18.25C22.2509 18.25 24.7507 15.7503 24.7507 12.6667L22.2507 12.6667ZM19.1673 15.75C17.4644 15.75 16.084 14.3695 16.084 12.6667H13.584C13.584 15.7503 16.0837 18.25 19.1673 18.25V15.75ZM16.084 12.6667C16.084 10.9638 17.4644 9.58333 19.1673 9.58333V7.08333C16.0837 7.08333 13.584 9.58307 13.584 12.6667H16.084ZM19.1673 9.58333C20.8702 9.58333 22.2507 10.9638 22.2507 12.6667L24.7507 12.6667C24.7507 9.58307 22.2509 7.08333 19.1673 7.08333V9.58333ZM6.91832 28.8326C15.4202 22.4428 25.4301 24.4254 31.4262 28.8399L32.9084 26.8267C26.2437 21.9199 15.0014 19.6302 5.41631 26.8341L6.91832 28.8326Z" fill="white"/>
</svg>
