<svg width="182" height="182" viewBox="0 0 182 182" fill="none" xmlns="http://www.w3.org/2000/svg">
<g filter="url(#filter0_d_57_422)">
<circle cx="91" cy="81" r="61" fill="url(#paint0_linear_57_422)"/>
</g>
<path d="M100 67.75C100.445 67.75 100.88 67.882 101.25 68.1292C101.62 68.3764 101.908 68.7278 102.079 69.139C102.249 69.5501 102.294 70.0025 102.207 70.439C102.12 70.8754 101.906 71.2763 101.591 71.591C101.276 71.9057 100.875 72.12 100.439 72.2068C100.003 72.2936 99.5502 72.249 99.139 72.0787C98.7279 71.9084 98.3765 71.62 98.1293 71.25C97.882 70.88 97.7501 70.445 97.7501 70C97.7501 69.4033 97.9871 68.831 98.4091 68.409C98.831 67.9871 99.4033 67.75 100 67.75ZM91.0001 67.75C91.4451 67.75 91.8801 67.882 92.2501 68.1292C92.6201 68.3764 92.9085 68.7278 93.0788 69.139C93.2491 69.5501 93.2936 70.0025 93.2068 70.439C93.12 70.8754 92.9057 71.2763 92.591 71.591C92.2764 71.9057 91.8755 72.12 91.439 72.2068C91.0026 72.2936 90.5502 72.249 90.139 72.0787C89.7279 71.9084 89.3765 71.62 89.1292 71.25C88.882 70.88 88.7501 70.445 88.7501 70C88.7501 69.4033 88.9871 68.831 89.4091 68.409C89.831 67.9871 90.4033 67.75 91.0001 67.75ZM82.0001 67.75C82.4451 67.75 82.8801 67.882 83.2501 68.1292C83.6201 68.3764 83.9085 68.7278 84.0788 69.139C84.2491 69.5501 84.2936 70.0025 84.2068 70.439C84.12 70.8754 83.9057 71.2763 83.591 71.591C83.2764 71.9057 82.8755 72.12 82.439 72.2068C82.0026 72.2936 81.5502 72.249 81.139 72.0787C80.7279 71.9084 80.3765 71.62 80.1292 71.25C79.882 70.88 79.7501 70.445 79.7501 70C79.7501 69.4033 79.9871 68.831 80.4091 68.409C80.831 67.9871 81.4033 67.75 82.0001 67.75ZM91.0001 47.5C93.9548 47.5 96.8806 48.082 99.6104 49.2127C102.34 50.3434 104.821 52.0008 106.91 54.0901C111.13 58.3097 113.5 64.0326 113.5 70C113.52 75.1956 111.721 80.2342 108.415 84.2425L112.915 88.7425C113.227 89.0589 113.439 89.4607 113.523 89.8972C113.607 90.3336 113.56 90.7853 113.388 91.195C113.201 91.5998 112.898 91.94 112.517 92.1724C112.137 92.4047 111.696 92.5188 111.25 92.5H91.0001C85.0327 92.5 79.3097 90.1295 75.0902 85.9099C70.8706 81.6903 68.5001 75.9674 68.5001 70C68.5001 64.0326 70.8706 58.3097 75.0902 54.0901C79.3097 49.8705 85.0327 47.5 91.0001 47.5ZM91.0001 88H105.828L103.735 85.9075C103.316 85.4859 103.081 84.9157 103.081 84.3213C103.081 83.7268 103.316 83.1566 103.735 82.735C106.681 79.7921 108.516 75.9187 108.927 71.7748C109.337 67.6309 108.298 63.4728 105.987 60.0089C103.675 56.5451 100.235 53.9898 96.2504 52.7784C92.2663 51.5671 87.9854 51.7746 84.1371 53.3656C80.2888 54.9566 77.1111 57.8326 75.1456 61.5038C73.18 65.1749 72.5481 69.414 73.3575 73.4988C74.1669 77.5836 76.3676 81.2614 79.5846 83.9055C82.8016 86.5497 86.8358 87.9967 91.0001 88Z" fill="white"/>
<path d="M77.5708 110.18C76.5008 110.18 75.5308 109.95 74.6608 109.49C73.8008 109.02 73.1208 108.375 72.6208 107.555C72.1308 106.725 71.8858 105.79 71.8858 104.75C71.8858 103.71 72.1308 102.78 72.6208 101.96C73.1208 101.13 73.8008 100.485 74.6608 100.025C75.5308 99.555 76.5058 99.32 77.5858 99.32C78.4958 99.32 79.3158 99.48 80.0458 99.8C80.7858 100.12 81.4058 100.58 81.9058 101.18L80.3458 102.62C79.6358 101.8 78.7558 101.39 77.7058 101.39C77.0558 101.39 76.4758 101.535 75.9658 101.825C75.4558 102.105 75.0558 102.5 74.7658 103.01C74.4858 103.52 74.3458 104.1 74.3458 104.75C74.3458 105.4 74.4858 105.98 74.7658 106.49C75.0558 107 75.4558 107.4 75.9658 107.69C76.4758 107.97 77.0558 108.11 77.7058 108.11C78.7558 108.11 79.6358 107.695 80.3458 106.865L81.9058 108.305C81.4058 108.915 80.7858 109.38 80.0458 109.7C79.3058 110.02 78.4808 110.18 77.5708 110.18ZM89.0368 101.81C90.0368 101.81 90.8418 102.11 91.4518 102.71C92.0718 103.31 92.3818 104.2 92.3818 105.38V110H90.0418V105.74C90.0418 105.1 89.9018 104.625 89.6218 104.315C89.3418 103.995 88.9368 103.835 88.4068 103.835C87.8168 103.835 87.3468 104.02 86.9968 104.39C86.6468 104.75 86.4718 105.29 86.4718 106.01V110H84.1318V98.87H86.4718V102.77C86.7818 102.46 87.1568 102.225 87.5968 102.065C88.0368 101.895 88.5168 101.81 89.0368 101.81ZM98.5079 101.81C99.7579 101.81 100.718 102.11 101.388 102.71C102.058 103.3 102.393 104.195 102.393 105.395V110H100.203V108.995C99.7629 109.745 98.9429 110.12 97.7429 110.12C97.1229 110.12 96.5829 110.015 96.1229 109.805C95.6729 109.595 95.3279 109.305 95.0879 108.935C94.8479 108.565 94.7279 108.145 94.7279 107.675C94.7279 106.925 95.0079 106.335 95.5679 105.905C96.1379 105.475 97.0129 105.26 98.1929 105.26H100.053C100.053 104.75 99.8979 104.36 99.5879 104.09C99.2779 103.81 98.8129 103.67 98.1929 103.67C97.7629 103.67 97.3379 103.74 96.9179 103.88C96.5079 104.01 96.1579 104.19 95.8679 104.42L95.0279 102.785C95.4679 102.475 95.9929 102.235 96.6029 102.065C97.2229 101.895 97.8579 101.81 98.5079 101.81ZM98.3279 108.545C98.7279 108.545 99.0829 108.455 99.3929 108.275C99.7029 108.085 99.9229 107.81 100.053 107.45V106.625H98.4479C97.4879 106.625 97.0079 106.94 97.0079 107.57C97.0079 107.87 97.1229 108.11 97.3529 108.29C97.5929 108.46 97.9179 108.545 98.3279 108.545ZM110.466 109.61C110.236 109.78 109.951 109.91 109.611 110C109.281 110.08 108.931 110.12 108.561 110.12C107.601 110.12 106.856 109.875 106.326 109.385C105.806 108.895 105.546 108.175 105.546 107.225V103.91H104.301V102.11H105.546V100.145H107.886V102.11H109.896V103.91H107.886V107.195C107.886 107.535 107.971 107.8 108.141 107.99C108.321 108.17 108.571 108.26 108.891 108.26C109.261 108.26 109.576 108.16 109.836 107.96L110.466 109.61Z" fill="white"/>
<defs>
<filter id="filter0_d_57_422" x="0" y="0" width="182" height="182" filterUnits="userSpaceOnUse" color-interpolation-filters="sRGB">
<feFlood flood-opacity="0" result="BackgroundImageFix"/>
<feColorMatrix in="SourceAlpha" type="matrix" values="0 0 0 0 0 0 0 0 0 0 0 0 0 0 0 0 0 0 127 0" result="hardAlpha"/>
<feOffset dy="10"/>
<feGaussianBlur stdDeviation="15"/>
<feComposite in2="hardAlpha" operator="out"/>
<feColorMatrix type="matrix" values="0 0 0 0 0 0 0 0 0 0 0 0 0 0 0 0 0 0 0.25 0"/>
<feBlend mode="normal" in2="BackgroundImageFix" result="effect1_dropShadow_57_422"/>
<feBlend mode="normal" in="SourceGraphic" in2="effect1_dropShadow_57_422" result="shape"/>
</filter>
<linearGradient id="paint0_linear_57_422" x1="91" y1="20" x2="91" y2="142" gradientUnits="userSpaceOnUse">
<stop stop-color="#5BB1F5"/>
<stop offset="1" stop-color="#4A7DA3"/>
</linearGradient>
</defs>
</svg>
