<svg width="289" height="84" viewBox="0 0 289 84" fill="none" xmlns="http://www.w3.org/2000/svg">
<path d="M92.2679 47.4677V26.0447H96.6699V47.8031C96.6699 49.8154 97.5084 50.5281 98.9338 50.5281C100.359 50.5281 101.198 49.8154 101.198 47.8031V26.0447H105.432V47.4677C105.432 51.9535 103.168 54.5528 98.85 54.5528C94.5318 54.5528 92.2679 51.9535 92.2679 47.4677Z" fill="white"/>
<path d="M108.583 26.0447H114.117L118.393 42.8561H118.477V26.0447H122.418V54.1336H117.89L112.608 33.6329H112.524V54.1336H108.583V26.0447Z" fill="white"/>
<path d="M125.715 26.0447H130.117V54.1336H125.715V26.0447Z" fill="white"/>
<path d="M135.079 29.4404H130.468V25.4158H144.093V29.4404H139.481V53.5047H135.079V29.4404Z" fill="white"/>
<path d="M148.04 26.0447H160.072V30.0694H152.484V37.4899H158.521V41.5145H152.484V50.1089H160.072V54.1336H148.04V26.0447Z" fill="white"/>
<path d="M162.618 26.0447H169.368C173.77 26.0447 175.95 28.4763 175.95 32.9621V47.2162C175.95 51.702 173.77 54.1336 169.368 54.1336H162.618V26.0447ZM169.284 50.1089C170.667 50.1089 171.506 49.3962 171.506 47.3839V32.7944C171.506 30.7821 170.667 30.0694 169.284 30.0694H167.02V50.1089H169.284Z" fill="white"/>
<path d="M185.353 26.0447H189.755V54.1336H185.353V26.0447Z" fill="white"/>
<path d="M196.484 30.0694H191.873V26.0447H205.54V30.0694H200.886V54.1336H196.484V30.0694Z" fill="white"/>
<path d="M213.814 47.6359V32.5434C213.814 28.1833 216.036 25.626 220.312 25.626C224.588 25.626 226.81 28.1833 226.81 32.5434V35.52H222.659V32.2499C222.659 30.4053 221.737 29.6507 220.438 29.6507C219.138 29.6507 218.216 30.4053 218.216 32.2499V47.9713C218.216 49.816 219.096 50.5287 220.438 50.5287C221.779 50.5287 222.659 49.816 222.659 47.9713V43.6532H226.81V47.6359C226.81 51.9541 224.588 54.5534 220.312 54.5534C216.036 54.5534 213.814 51.9541 213.814 47.6359Z" fill="white"/>
<path d="M229.454 26.0447H233.898V50.1089H241.15V54.1336H229.454V26.0447Z" fill="white"/>
<path d="M243.121 47.4677V26.0447H247.523V47.8031C247.523 49.8154 248.362 50.5281 249.787 50.5281C251.212 50.5281 252.051 49.8154 252.051 47.8031V26.0447H256.285V47.4677C256.285 51.9535 254.021 54.5528 249.703 54.5528C245.385 54.5528 243.121 51.9535 243.121 47.4677Z" fill="white"/>
<path d="M259.436 26.0447H266.102C270.672 26.0447 272.642 28.1828 272.642 32.5009V33.6329C272.642 36.5256 271.762 38.3283 269.791 39.1249V39.2087C272.139 40.0053 273.061 42.1015 273.061 45.0781V47.4677C273.061 51.8278 270.798 54.1336 266.396 54.1336H259.436V26.0447ZM265.557 37.4899C267.234 37.4899 268.24 36.7352 268.24 34.5133V32.9621C268.24 30.9498 267.528 30.0694 265.976 30.0694H263.838V37.4899H265.557ZM266.396 50.1089C267.863 50.1089 268.66 49.4381 268.66 47.3419V44.9104C268.66 42.3111 267.821 41.5145 265.809 41.5145H263.838V50.1089H266.396Z" fill="white"/>
<path d="M274.881 47.4682V45.8751H279.031V47.8036C279.031 49.816 279.912 50.5287 281.337 50.5287C282.763 50.5287 283.601 49.816 283.601 47.7198C283.601 45.6236 282.721 43.9047 279.828 41.3893C276.139 38.1193 274.923 35.8134 274.923 32.6272C274.923 28.1833 277.229 25.626 281.547 25.626C285.865 25.626 287.961 28.1833 287.961 32.7111V33.885H283.769V32.4176C283.769 30.4053 282.972 29.6507 281.547 29.6507C280.121 29.6507 279.367 30.4053 279.367 32.3338C279.367 34.2623 280.289 35.8554 283.182 38.4127C286.871 41.6408 288.045 43.9047 288.045 47.3844C288.045 51.9541 285.697 54.5534 281.379 54.5534C277.061 54.5534 274.881 51.9541 274.881 47.4682Z" fill="white"/>
<path opacity="0.2" d="M67.3342 60.6337V26.5078L37.7779 9.44482L8.18396 26.5078V60.6337L37.7779 77.6967L67.3342 60.6337Z" fill="white"/>
<path d="M32.3232 83.9999L0 65.369V28.1575L9.09326 33.3602V60.1117L32.3232 73.5273V83.9999ZM2.42738 63.9687L29.8958 79.7991V74.9276L6.66588 61.512V34.7688L2.42738 32.3415V63.9687Z" fill="white"/>
<path d="M60.9708 23.8881L37.7869 10.4725L14.5612 23.8881L5.46375 18.6309L37.7869 0L70.0682 18.6309L60.9708 23.8881ZM10.3227 18.6309L14.5612 21.0876L37.7869 7.67204L60.9708 21.0876L65.2093 18.6309L37.7869 2.80051L10.3227 18.6309Z" fill="url(#paint0_linear_102_314)"/>
<path d="M43.1804 83.9999V73.519L66.4062 60.1034V33.3602L75.5036 28.1575V65.369L43.1804 83.9999ZM45.6078 74.9276V79.7991L73.0762 63.9687V32.3415L68.8336 34.7688V61.512L45.6078 74.9276Z" fill="white"/>
<path d="M32.3191 76.3237L6.66174 61.5037V31.9517L32.3191 46.7717V76.3237ZM9.08913 60.1035L29.8917 72.1146V48.172L9.08913 36.1608V60.1035Z" fill="white"/>
<path d="M37.7692 79.2945C37.556 79.296 37.3463 79.241 37.1613 79.1352L30.4954 75.2782C30.3117 75.1707 30.1594 75.017 30.0535 74.8324C29.9476 74.6478 29.8918 74.4387 29.8917 74.2259V48.1787L7.25288 35.1153C7.07183 35.0059 6.92221 34.8515 6.81862 34.667C6.71502 34.4826 6.66097 34.2745 6.66175 34.063V26.3909C6.66186 26.1776 6.71811 25.968 6.82487 25.7833C6.93162 25.5985 7.08511 25.4451 7.26991 25.3385C7.45472 25.2319 7.66433 25.1758 7.87769 25.1758C8.09106 25.1758 8.30066 25.232 8.48543 25.3387L38.3771 42.5693C38.5612 42.6766 38.7142 42.8301 38.8208 43.0147C38.9274 43.1993 38.984 43.4085 38.985 43.6216V78.0829C38.9855 78.2425 38.9544 78.4007 38.8935 78.5482C38.8325 78.6957 38.7429 78.8297 38.6298 78.9424C38.5168 79.055 38.3825 79.1442 38.2348 79.2046C38.087 79.2651 37.9288 79.2956 37.7692 79.2945ZM32.3191 73.5258L36.5576 75.9783V44.3217L9.08913 28.4913V33.3629L31.728 46.4263C31.9121 46.5336 32.0651 46.6871 32.1717 46.8717C32.2783 47.0562 32.3349 47.2654 32.3358 47.4786L32.3191 73.5258Z" fill="white"/>
<path d="M37.7815 44.7798C37.5684 44.7813 37.3586 44.7264 37.1736 44.6205L7.28198 27.348C7.09835 27.2415 6.94592 27.0886 6.83996 26.9046C6.734 26.7207 6.67822 26.5121 6.67822 26.2999C6.67822 26.0876 6.734 25.879 6.83996 25.6951C6.94592 25.5111 7.09835 25.3583 7.28198 25.2518L13.9479 21.4367C14.1322 21.3308 14.3411 21.275 14.5537 21.275C14.7662 21.275 14.9751 21.3308 15.1595 21.4367L37.7983 34.5043L60.3784 21.4241C60.5627 21.3182 60.7716 21.2625 60.9842 21.2625C61.1968 21.2625 61.4057 21.3182 61.59 21.4241L68.2559 25.2392C68.4384 25.3465 68.5898 25.4997 68.695 25.6835C68.8002 25.8674 68.8555 26.0755 68.8555 26.2873C68.8555 26.4991 68.8002 26.7072 68.695 26.891C68.5898 27.0749 68.4384 27.228 68.2559 27.3354L38.4062 44.608C38.2175 44.7211 38.0015 44.7805 37.7815 44.7798ZM10.3256 26.2957L37.7815 42.1638L65.1996 26.2957L60.9695 23.8767L38.3894 36.9443C38.204 37.0494 37.9946 37.1046 37.7815 37.1046C37.5684 37.1046 37.359 37.0494 37.1736 36.9443L14.5348 23.8767L10.3256 26.2957Z" fill="white"/>
<path d="M37.7798 79.2952C37.5677 79.299 37.3587 79.2439 37.1761 79.1359C36.9911 79.0295 36.8375 78.8762 36.7307 78.6914C36.624 78.5067 36.5679 78.297 36.5682 78.0836V43.6223C36.5683 43.4094 36.6241 43.2004 36.73 43.0158C36.8359 42.8312 36.9883 42.6775 37.1719 42.57L67.0216 25.3393C67.2061 25.2323 67.4155 25.1759 67.6288 25.1758C67.842 25.1756 68.0515 25.2318 68.2361 25.3386C68.4207 25.4453 68.5739 25.5989 68.6801 25.7838C68.7863 25.9687 68.8419 26.1784 68.8411 26.3916V34.0637C68.841 34.2765 68.7853 34.4856 68.6794 34.6702C68.5734 34.8547 68.4211 35.0084 68.2374 35.1159L45.5986 48.1794V74.2266C45.599 74.4384 45.5439 74.6467 45.4387 74.8306C45.3335 75.0145 45.1819 75.1676 44.9991 75.2747L38.3752 79.1317C38.1939 79.236 37.989 79.2922 37.7798 79.2952ZM38.9956 44.3224V75.9706L43.188 73.5307V47.4792C43.1889 47.2661 43.2455 47.0569 43.3521 46.8723C43.4588 46.6878 43.6117 46.5343 43.7959 46.427L66.4347 33.3635V28.492L38.9956 44.3224Z" fill="white"/>
<path d="M43.1804 76.3237V46.7717L68.8336 31.9517V61.5037L43.1804 76.3237ZM45.6078 48.172V72.1146L66.4062 60.1035V36.1608L45.6078 48.172Z" fill="white"/>
<defs>
<linearGradient id="paint0_linear_102_314" x1="5.46375" y1="11.9441" x2="70.0682" y2="11.9441" gradientUnits="userSpaceOnUse">
<stop stop-color="white"/>
<stop offset="1" stop-color="white"/>
</linearGradient>
</defs>
</svg>
