<svg width="20" height="20" viewBox="0 0 20 20" fill="none" xmlns="http://www.w3.org/2000/svg">
<path d="M14.0419 0.000976562H5.95811C2.67279 0.000976562 0 2.67377 0 5.95908V14.0429C0 17.3282 2.67279 20.001 5.95811 20.001H14.0419C17.3272 20.001 20 17.3282 20 14.0429V5.95908C20 2.67377 17.3272 0.000976562 14.0419 0.000976562ZM17.988 14.0429C17.988 16.2222 16.2213 17.989 14.0419 17.989H5.95811C3.77875 17.989 2.012 16.2222 2.012 14.0429V5.95908C2.012 3.77969 3.77875 2.01298 5.95811 2.01298H14.0419C16.2213 2.01298 17.988 3.77969 17.988 5.95908V14.0429Z" fill="white"/>
<path d="M10.0008 4.82715C7.1486 4.82715 4.82812 7.14762 4.82812 9.99982C4.82812 12.852 7.1486 15.1725 10.0008 15.1725C12.8531 15.1725 15.1735 12.8521 15.1735 9.99982C15.1735 7.14759 12.8531 4.82715 10.0008 4.82715ZM10.0008 13.1606C8.25521 13.1606 6.84012 11.7455 6.84012 9.99986C6.84012 8.25423 8.25525 6.83915 10.0008 6.83915C11.7465 6.83915 13.1615 8.25423 13.1615 9.99986C13.1615 11.7455 11.7464 13.1606 10.0008 13.1606Z" fill="white"/>
<path d="M15.1736 6.06662C15.8581 6.06662 16.413 5.51169 16.413 4.82713C16.413 4.14258 15.8581 3.58765 15.1736 3.58765C14.489 3.58765 13.9341 4.14258 13.9341 4.82713C13.9341 5.51169 14.489 6.06662 15.1736 6.06662Z" fill="white"/>
</svg>
