<svg width="28" height="30" viewBox="0 0 28 30" fill="none" xmlns="http://www.w3.org/2000/svg">
<path d="M19.0009 19.8351C22.1888 14.8326 21.7881 15.4567 21.8799 15.3263C23.0406 13.6892 23.6541 11.7625 23.6541 9.75417C23.6541 4.42832 19.3322 0.0410156 13.9994 0.0410156C8.68397 0.0410156 4.34476 4.41966 4.34476 9.75417C4.34476 11.7612 4.97109 13.7384 6.16978 15.3975L8.99783 19.8351C5.97417 20.2998 0.833984 21.6845 0.833984 24.7335C0.833984 25.845 1.55943 27.4289 5.01544 28.6632C7.42863 29.525 10.6192 29.9997 13.9994 29.9997C20.3203 29.9997 27.1648 28.2167 27.1648 24.7335C27.1648 21.684 22.0307 20.3007 19.0009 19.8351ZM7.63606 14.432C7.62641 14.4169 7.61634 14.4022 7.60581 14.3876C6.60834 13.0154 6.10015 11.3891 6.10015 9.75417C6.10015 5.36464 9.63469 1.79641 13.9994 1.79641C18.3551 1.79641 21.8987 5.36622 21.8987 9.75417C21.8987 11.3917 21.4001 12.9628 20.4566 14.2989C20.372 14.4105 20.8131 13.7252 13.9994 24.4169L7.63606 14.432ZM13.9994 28.2443C7.09523 28.2443 2.58937 26.2149 2.58937 24.7335C2.58937 23.7378 4.90462 22.1007 10.035 21.4626L13.2592 26.5218C13.4204 26.7747 13.6995 26.9277 13.9993 26.9277C14.2992 26.9277 14.5784 26.7746 14.7395 26.5218L17.9636 21.4626C23.0941 22.1007 25.4094 23.7378 25.4094 24.7335C25.4094 26.2023 20.9441 28.2443 13.9994 28.2443Z" fill="white"/>
<path d="M13.9994 5.36572C11.5796 5.36572 9.61093 7.33439 9.61093 9.7542C9.61093 12.174 11.5796 14.1427 13.9994 14.1427C16.4192 14.1427 18.3879 12.174 18.3879 9.7542C18.3879 7.33439 16.4192 5.36572 13.9994 5.36572ZM13.9994 12.3873C12.5475 12.3873 11.3663 11.2061 11.3663 9.7542C11.3663 8.30231 12.5475 7.12111 13.9994 7.12111C15.4513 7.12111 16.6325 8.30231 16.6325 9.7542C16.6325 11.2061 15.4513 12.3873 13.9994 12.3873Z" fill="white"/>
</svg>
