<svg width="96" height="96" viewBox="0 0 96 96" fill="none" xmlns="http://www.w3.org/2000/svg">
<path d="M76 8L20 8C13.3806 8.01932 8.01932 13.3806 8 20V55.44L23.52 39.92C28.2699 35.4 35.7301 35.4 40.48 39.92L51.9656 51.468L55.5156 47.918C60.2094 43.2515 67.7906 43.2515 72.4844 47.918L88 63.4336V20C87.9807 13.3806 82.6194 8.01932 76 8Z" fill="#A2A1FF"/>
<path d="M40.48 39.9197C35.7301 35.3997 28.2699 35.3997 23.52 39.9197L8 55.4397V75.9997C8.01936 82.619 13.3806 87.9803 20 87.9997H76C79.2605 87.9983 82.3799 86.6697 84.64 84.3197L40.48 39.9197Z" fill="#6563FF"/>
<path d="M88.0003 63.4335L72.4846 47.9179C67.7908 43.2515 60.2097 43.2515 55.5159 47.9179L51.9658 51.4679L84.6228 84.3022C86.7913 82.0831 88.0038 79.1026 88.0003 75.9999V63.4335Z" fill="#C1C0FF"/>
</svg>
