<svg width="28" height="28" viewBox="0 0 28 28" fill="none" xmlns="http://www.w3.org/2000/svg">
<path d="M2 7.60714C1.30964 7.60714 0.75 8.16679 0.75 8.85714C0.75 9.5475 1.30964 10.1071 2 10.1071V7.60714ZM5.42857 10.1071C6.11893 10.1071 6.67857 9.5475 6.67857 8.85714C6.67857 8.16679 6.11893 7.60714 5.42857 7.60714V10.1071ZM2 12.75C1.30964 12.75 0.75 13.3096 0.75 14C0.75 14.6904 1.30964 15.25 2 15.25V12.75ZM5.42857 15.25C6.11893 15.25 6.67857 14.6904 6.67857 14C6.67857 13.3096 6.11893 12.75 5.42857 12.75V15.25ZM2 17.8929C1.30964 17.8929 0.75 18.4525 0.75 19.1429C0.75 19.8332 1.30964 20.3929 2 20.3929L2 17.8929ZM5.42857 20.3929C6.11893 20.3929 6.67857 19.8332 6.67857 19.1429C6.67857 18.4525 6.11893 17.8929 5.42857 17.8929L5.42857 20.3929ZM6.67857 22.5714L6.67857 5.42857H4.17857L4.17857 22.5714H6.67857ZM8.85714 3.25L22.5714 3.25V0.75L8.85714 0.75V3.25ZM24.75 5.42857V22.5714H27.25V5.42857L24.75 5.42857ZM22.5714 24.75L8.85714 24.75V27.25L22.5714 27.25V24.75ZM24.75 22.5714C24.75 23.7746 23.7746 24.75 22.5714 24.75V27.25C25.1553 27.25 27.25 25.1553 27.25 22.5714H24.75ZM22.5714 3.25C23.7746 3.25 24.75 4.22538 24.75 5.42857L27.25 5.42857C27.25 2.84467 25.1553 0.75 22.5714 0.75V3.25ZM6.67857 5.42857C6.67857 4.22538 7.65395 3.25 8.85714 3.25V0.75C6.27324 0.75 4.17857 2.84467 4.17857 5.42857H6.67857ZM4.17857 22.5714C4.17857 25.1553 6.27324 27.25 8.85714 27.25V24.75C7.65395 24.75 6.67857 23.7746 6.67857 22.5714H4.17857ZM2 10.1071H5.42857V7.60714H2V10.1071ZM2 15.25H5.42857V12.75H2V15.25ZM2 20.3929H5.42857L5.42857 17.8929H2L2 20.3929ZM17.8929 10.5714C17.8929 11.7746 16.9175 12.75 15.7143 12.75V15.25C18.2982 15.25 20.3929 13.1553 20.3929 10.5714H17.8929ZM15.7143 12.75C14.5111 12.75 13.5357 11.7746 13.5357 10.5714H11.0357C11.0357 13.1553 13.1304 15.25 15.7143 15.25V12.75ZM13.5357 10.5714C13.5357 9.36824 14.5111 8.39286 15.7143 8.39286V5.89286C13.1304 5.89286 11.0357 7.98752 11.0357 10.5714H13.5357ZM15.7143 8.39286C16.9175 8.39286 17.8929 9.36824 17.8929 10.5714H20.3929C20.3929 7.98752 18.2982 5.89286 15.7143 5.89286V8.39286ZM6.17958 23.5707C12.7932 18.6 20.5845 20.1366 25.2589 23.578L26.7411 21.5648C21.3981 17.6311 12.3745 15.7874 4.67756 21.5722L6.17958 23.5707Z" fill="#4A7DA3"/>
</svg>
