<svg width="685" height="437" viewBox="0 0 685 437" fill="none" xmlns="http://www.w3.org/2000/svg">
<g clip-path="url(#clip0_37_141)">
<path d="M684.035 240.883C682.285 247.653 678.557 252.973 673.679 257.535C658.452 271.721 632.09 278.185 620.145 296.489C619.15 298.014 618.262 299.606 617.487 301.253C617.349 301.543 617.211 301.833 617.082 302.131C616.952 302.429 616.782 302.816 616.644 303.163C616.296 303.969 615.98 304.831 615.68 305.686C615.558 306.056 615.428 306.427 615.315 306.798C614.515 309.32 613.895 311.895 613.459 314.503C613.37 315.051 613.281 315.591 613.2 316.115V316.285C613.2 316.615 613.111 316.938 613.07 317.268C613.07 317.365 613.07 317.461 613.07 317.558L612.973 318.421L612.924 318.824C612.924 319.09 612.868 319.364 612.843 319.63C612.787 320.186 612.73 320.75 612.689 321.306C612.689 321.54 612.689 321.782 612.633 322.015C612.576 322.249 612.633 322.604 612.568 322.894V323.249C612.317 327.279 612.276 331.309 612.284 335.419V339.103C612.284 339.909 612.284 340.715 612.284 341.561C612.284 344.962 612.284 348.356 612.219 351.709C611.944 361.244 610.817 370.48 606.79 378.694C604.114 384.188 600.174 388.979 595.291 392.678C588.645 397.764 580.452 400.931 571.789 402.584C564.184 403.984 556.425 404.369 548.718 403.728C527.988 402.116 507.761 395.394 486.967 395.555C468.555 395.692 450.961 401.133 433.619 408.032C400.912 421.057 369.137 439.273 334.501 436.774C290.441 433.655 253.99 397.611 209.938 394.499L209.265 394.451H208.706H208.528H208.041H207.822H207.255H206.315H205.391H204.427C198.458 394.416 192.496 394.861 186.599 395.781H186.372L185.432 395.926L185.059 395.982C183.73 396.2 182.393 396.434 181.064 396.684L180.667 396.756L178.997 397.079L177.879 397.304L177.62 397.361L175.999 397.691L174.483 398.03C173.746 398.191 173.017 398.352 172.279 398.529L171.987 398.594L170.893 398.852C155.148 402.6 139.507 407.798 123.599 410.724C112.325 412.82 100.783 413.076 89.4256 411.482C70.9327 408.733 54.1578 400.351 46.1269 384.078C43.6323 378.91 42.0636 373.348 41.4915 367.643C41.1979 364.967 41.0545 362.276 41.062 359.583C41.062 345.148 44.6115 329.979 45.1139 315.148C45.2717 311.208 45.1444 307.262 44.7331 303.34C44.5386 301.575 44.2712 299.834 43.9227 298.093C43.0484 293.817 41.7424 289.639 40.0247 285.624C36.143 276.428 30.4541 267.892 24.6275 259.55C21.9451 255.713 19.2141 251.909 16.6209 248.072C14.5058 244.961 12.4555 241.721 10.5512 238.4C7.29857 232.84 4.65252 226.949 2.65803 220.829C-0.0486481 212.229 -0.956276 203.347 1.23986 194.578C6.53976 173.525 27.9014 160.637 48.55 153.609C59.5306 149.877 71.0219 147.048 81.9944 143.251C91.5894 139.931 100.787 135.868 108.915 129.823L109.077 129.694C121.76 120.192 130.844 106.465 139.993 93.0775C151.144 76.5705 162.409 60.7567 180.407 53.688C200.586 45.7489 223.179 51.4876 244.825 52.9465C292.921 56.1705 353.246 18.2883 401.787 30.999C410.611 33.2909 418.88 37.3288 426.099 42.8714C438.781 52.5435 448.49 66.4793 460.816 76.1756C465.314 79.8278 470.38 82.7271 475.816 84.7595C486.764 88.717 498.45 88.1125 510.152 86.5408C515.946 85.7348 521.748 84.7434 527.453 83.9213C541.984 81.8337 558.313 81.6645 570.452 89.0072C572.744 90.3891 574.861 92.0398 576.757 93.9238C586.036 103.169 588.354 116.395 591.344 129.428C591.538 130.234 591.733 131.121 591.944 131.959C593.459 138.238 595.258 144.42 598.208 150.006L598.718 150.957C605.631 163.361 617.544 171.252 630.323 178.184C637.276 181.972 644.489 185.438 651.272 189.266C666.944 198.06 682.561 212.785 684.773 229.429C685.272 233.259 685.021 237.148 684.035 240.883Z" fill="url(#paint0_linear_37_141)"/>
<path style="mix-blend-mode:screen" opacity="0.75" d="M684.035 240.883C682.285 247.653 678.557 252.973 673.679 257.535C658.452 271.721 632.09 278.185 620.145 296.489C619.15 298.014 618.262 299.606 617.487 301.253C617.349 301.543 617.211 301.833 617.082 302.131C616.952 302.429 616.782 302.816 616.644 303.163C616.296 303.969 615.98 304.831 615.68 305.686C615.558 306.056 615.428 306.427 615.315 306.798C614.515 309.32 613.895 311.895 613.459 314.503C613.37 315.051 613.281 315.591 613.2 316.115V316.285C613.2 316.615 613.111 316.938 613.07 317.268C613.07 317.365 613.07 317.461 613.07 317.558L612.973 318.421L612.924 318.824C612.924 319.09 612.868 319.364 612.843 319.63C612.787 320.186 612.73 320.75 612.689 321.306C612.689 321.54 612.689 321.782 612.633 322.015C612.576 322.249 612.633 322.604 612.568 322.894V323.249C612.317 327.279 612.276 331.309 612.284 335.419V339.103C612.284 339.909 612.284 340.715 612.284 341.561C612.284 344.962 612.284 348.356 612.219 351.709C611.944 361.244 610.817 370.48 606.79 378.694C604.114 384.188 600.174 388.979 595.291 392.678C588.645 397.764 580.452 400.931 571.789 402.584C564.184 403.984 556.425 404.369 548.718 403.728C527.988 402.116 507.761 395.394 486.967 395.555C468.555 395.692 450.961 401.133 433.619 408.032C400.912 421.057 369.137 439.273 334.501 436.774C290.441 433.655 253.99 397.611 209.938 394.499L209.265 394.451H208.706H208.528H208.041H207.822H207.255H206.315H205.391H204.427C198.458 394.416 192.496 394.861 186.599 395.781H186.372L185.432 395.926L185.059 395.982C183.73 396.2 182.393 396.434 181.064 396.684L180.667 396.756L178.997 397.079L177.879 397.304L177.62 397.361L175.999 397.691L174.483 398.03C173.746 398.191 173.017 398.352 172.279 398.529L171.987 398.594L170.893 398.852C155.148 402.6 139.507 407.798 123.599 410.724C112.325 412.82 100.783 413.076 89.4256 411.482C70.9327 408.733 54.1578 400.351 46.1269 384.078C43.6323 378.91 42.0636 373.348 41.4915 367.643C41.1979 364.967 41.0545 362.276 41.062 359.583C41.062 345.148 44.6115 329.979 45.1139 315.148C45.2717 311.208 45.1444 307.262 44.7331 303.34C44.5386 301.575 44.2712 299.834 43.9227 298.093C43.0484 293.817 41.7424 289.639 40.0247 285.624C36.143 276.428 30.4541 267.892 24.6275 259.55C21.9451 255.713 19.2141 251.909 16.6209 248.072C14.5058 244.961 12.4555 241.721 10.5512 238.4C7.29857 232.84 4.65252 226.949 2.65803 220.829C-0.0486481 212.229 -0.956276 203.347 1.23986 194.578C6.53976 173.525 27.9014 160.637 48.55 153.609C59.5306 149.877 71.0219 147.048 81.9944 143.251C91.5894 139.931 100.787 135.868 108.915 129.823L109.077 129.694C121.76 120.192 130.844 106.465 139.993 93.0775C151.144 76.5705 162.409 60.7567 180.407 53.688C200.586 45.7489 223.179 51.4876 244.825 52.9465C292.921 56.1705 353.246 18.2883 401.787 30.999C410.611 33.2909 418.88 37.3288 426.099 42.8714C438.781 52.5435 448.49 66.4793 460.816 76.1756C465.314 79.8278 470.38 82.7271 475.816 84.7595C486.764 88.717 498.45 88.1125 510.152 86.5408C515.946 85.7348 521.748 84.7434 527.453 83.9213C541.984 81.8337 558.313 81.6645 570.452 89.0072C572.744 90.3891 574.861 92.0398 576.757 93.9238C586.036 103.169 588.354 116.395 591.344 129.428C591.538 130.234 591.733 131.121 591.944 131.959C593.459 138.238 595.258 144.42 598.208 150.006L598.718 150.957C605.631 163.361 617.544 171.252 630.323 178.184C637.276 181.972 644.489 185.438 651.272 189.266C666.944 198.06 682.561 212.785 684.773 229.429C685.272 233.259 685.021 237.148 684.035 240.883Z" fill="url(#paint1_linear_37_141)"/>
<g style="mix-blend-mode:screen" opacity="0.5">
<path style="mix-blend-mode:screen" opacity="0.5" d="M684.036 240.883C682.285 247.653 678.558 252.973 673.679 257.535C658.452 271.721 632.09 278.185 620.145 296.489C619.15 298.014 618.262 299.606 617.487 301.253C617.349 301.543 617.212 301.833 617.082 302.131C616.952 302.429 616.782 302.816 616.644 303.163C616.296 303.969 615.98 304.831 615.68 305.686C615.558 306.056 615.429 306.427 615.315 306.798C614.515 309.32 613.895 311.895 613.46 314.503C613.37 315.051 613.281 315.591 613.2 316.115V316.285C613.2 316.615 613.111 316.938 613.071 317.268C613.071 317.365 613.071 317.461 613.071 317.558L612.973 318.421L612.925 318.824C612.925 319.09 612.868 319.364 612.844 319.63C612.787 320.186 612.73 320.75 612.69 321.306C612.69 321.54 612.69 321.782 612.633 322.015C612.576 322.249 612.633 322.604 612.568 322.894V323.249C612.317 327.279 612.276 331.309 612.284 335.419V339.103C612.284 339.909 612.284 340.715 612.284 341.561C612.284 344.648 612.284 347.719 612.284 350.766V351.709C612.009 361.244 610.883 370.48 606.855 378.694C604.179 384.188 600.239 388.979 595.356 392.678C588.71 397.764 580.518 400.931 571.854 402.584C564.249 403.984 556.49 404.369 548.783 403.728C528.053 402.116 507.826 395.394 487.032 395.555C468.62 395.692 451.026 401.133 433.684 408.032C400.912 421.057 369.137 439.273 334.502 436.774C292.362 433.792 257.191 400.698 215.667 395.088C213.771 394.83 211.861 394.634 209.938 394.499L209.265 394.451H208.706H208.528H208.041H207.823H207.255H206.315H205.391H203.309C197.721 394.485 192.144 394.932 186.623 395.789H186.396L185.456 395.934L185.083 395.991C183.754 396.208 182.417 396.442 181.088 396.692L180.691 396.764L179.022 397.087L177.903 397.312L177.644 397.369L176.023 397.699L174.508 398.038C173.77 398.199 173.041 398.36 172.304 398.538L172.012 398.602L170.918 398.86C155.172 402.608 139.532 407.807 123.624 410.732C112.349 412.828 100.807 413.084 89.4501 411.49C70.9572 408.742 54.1822 400.359 46.1514 384.086C43.6567 378.918 42.088 373.356 41.516 367.651C41.2223 364.975 41.0789 362.284 41.0865 359.591C41.0865 345.156 44.6359 329.987 45.1384 315.156C45.2961 311.216 45.1688 307.27 44.7575 303.348C44.563 301.583 44.2956 299.842 43.9471 298.101C43.0728 293.825 41.7668 289.648 40.0492 285.632C36.1674 276.436 30.4786 267.9 24.6519 259.558L22.9015 257.067C20.7945 254.069 18.6794 251.087 16.6453 248.08C16.1996 247.428 15.762 246.767 15.3244 246.106C13.7036 243.607 12.0829 241.028 10.5756 238.392C7.32299 232.832 4.67693 226.941 2.68244 220.821C-0.0242341 212.221 -0.931862 203.339 1.26427 194.57C6.56418 173.517 27.9259 160.629 48.5744 153.6C59.5551 149.869 71.0463 147.04 82.0189 143.243C91.6138 139.923 100.812 135.86 108.94 129.815L109.102 129.686C121.784 120.183 130.869 106.457 140.018 93.0695C151.145 76.5705 162.409 60.7567 180.407 53.688C200.586 45.7489 223.179 51.4876 244.825 52.9465C292.921 56.1705 353.246 18.2883 401.788 30.999C410.612 33.2909 418.88 37.3288 426.099 42.8714C432.299 47.6027 437.785 53.3495 443.214 59.1124C448.887 65.1494 454.511 71.2025 460.816 76.1756C465.314 79.8278 470.381 82.7271 475.816 84.7595C486.764 88.717 498.45 88.1125 510.152 86.5408C515.946 85.7348 521.749 84.7434 527.454 83.9213C539.31 82.2206 552.357 81.7934 563.354 85.6784C565.829 86.5423 568.208 87.6578 570.453 89.0072C572.744 90.3891 574.861 92.0398 576.757 93.9238C586.036 103.169 588.354 116.395 591.344 129.428C591.539 130.234 591.733 131.121 591.944 131.959C593.459 138.238 595.258 144.42 598.208 150.006L598.719 150.957C605.631 163.361 617.544 171.252 630.324 178.184C637.277 181.972 644.489 185.438 651.272 189.266C666.945 198.06 682.561 212.785 684.773 229.429C685.272 233.259 685.022 237.148 684.036 240.883Z" fill="url(#paint2_linear_37_141)"/>
<path style="mix-blend-mode:screen" opacity="0.75" d="M684.036 240.883C682.285 247.653 678.557 252.973 673.679 257.535C658.452 271.721 632.09 278.185 620.145 296.489C619.15 298.014 618.262 299.606 617.487 301.253C617.349 301.543 617.211 301.833 617.082 302.131C616.952 302.429 616.782 302.816 616.644 303.163C616.296 303.969 615.98 304.831 615.68 305.686C615.558 306.056 615.429 306.427 615.315 306.798C614.515 309.32 613.895 311.895 613.459 314.503C613.37 315.051 613.281 315.591 613.2 316.115V316.285C613.2 316.615 613.111 316.938 613.07 317.268C613.07 317.365 613.07 317.461 613.07 317.558L612.973 318.421L612.925 318.824C612.925 319.09 612.868 319.364 612.844 319.63C612.787 320.186 612.73 320.75 612.69 321.306C612.69 321.54 612.69 321.782 612.633 322.015C612.576 322.249 612.633 322.604 612.568 322.894V323.249C612.317 327.279 612.276 331.309 612.284 335.419V339.103C612.284 339.909 612.284 340.715 612.284 341.561C612.284 344.648 612.284 347.719 612.284 350.766V351.709C612.009 361.244 610.882 370.48 606.855 378.694C604.179 384.188 600.239 388.979 595.356 392.678C588.71 397.764 580.517 400.931 571.854 402.584C564.249 403.984 556.49 404.369 548.783 403.728C528.053 402.116 507.826 395.394 487.032 395.555C468.62 395.692 451.026 401.133 433.684 408.032C400.912 421.057 369.137 439.273 334.502 436.774C292.362 433.792 257.191 400.698 215.667 395.088C213.771 394.83 211.861 394.634 209.938 394.499L209.265 394.451H208.706H208.528H208.041H207.823H207.255H206.315H205.391H203.309C197.721 394.485 192.144 394.932 186.623 395.789H186.396L185.456 395.934L185.083 395.991C183.754 396.208 182.417 396.442 181.088 396.692L180.691 396.764L179.022 397.087L177.903 397.312L177.644 397.369L176.023 397.699L174.508 398.038C173.77 398.199 173.041 398.36 172.304 398.538L172.012 398.602L170.918 398.86C155.172 402.608 139.532 407.807 123.624 410.732C112.349 412.828 100.807 413.084 89.4501 411.49C70.9572 408.742 54.1822 400.359 46.1513 384.086C43.6567 378.918 42.088 373.356 41.516 367.651C41.2223 364.975 41.0789 362.284 41.0865 359.591C41.0865 345.156 44.6359 329.987 45.1384 315.156C45.2961 311.216 45.1688 307.27 44.7575 303.348C44.563 301.583 44.2956 299.842 43.9471 298.101C43.0728 293.825 41.7668 289.648 40.0492 285.632C36.1674 276.436 30.4786 267.9 24.6519 259.558L22.9015 257.067C20.7945 254.069 18.6794 251.087 16.6453 248.08C16.1996 247.428 15.762 246.767 15.3244 246.106C13.7036 243.607 12.0829 241.028 10.5756 238.392C7.32298 232.832 4.67693 226.941 2.68244 220.821C-0.0242339 212.221 -0.931862 203.339 1.26427 194.57C6.56417 173.517 27.9258 160.629 48.5744 153.6C59.5551 149.869 71.0463 147.04 82.0189 143.243C91.6138 139.923 100.812 135.86 108.94 129.815L109.102 129.686C121.784 120.183 130.869 106.457 140.018 93.0695C151.144 76.5705 162.409 60.7567 180.407 53.688C200.586 45.7489 223.179 51.4876 244.825 52.9465C292.921 56.1705 353.246 18.2883 401.788 30.999C410.611 33.2909 418.88 37.3288 426.099 42.8714C432.298 47.6027 437.785 53.3495 443.214 59.1124C448.887 65.1494 454.511 71.2025 460.816 76.1756C465.314 79.8278 470.381 82.7271 475.816 84.7595C486.764 88.717 498.45 88.1125 510.152 86.5408C515.946 85.7348 521.749 84.7434 527.454 83.9213C539.31 82.2206 552.357 81.7934 563.354 85.6784C565.829 86.5423 568.208 87.6578 570.452 89.0072C572.744 90.3891 574.861 92.0398 576.757 93.9238C586.036 103.169 588.354 116.395 591.344 129.428C591.539 130.234 591.733 131.121 591.944 131.959C593.459 138.238 595.258 144.42 598.208 150.006L598.719 150.957C605.631 163.361 617.544 171.252 630.323 178.184C637.277 181.972 644.489 185.438 651.272 189.266C666.945 198.06 682.561 212.785 684.773 229.429C685.272 233.259 685.022 237.148 684.036 240.883Z" fill="url(#paint3_linear_37_141)" fill-opacity="0.2"/>
</g>
<path style="mix-blend-mode:screen" opacity="0.75" d="M563.362 85.6784C557.462 100.92 549.042 114.944 537.47 126.68C511.805 152.69 474.057 163.756 437.453 165.441C400.848 167.125 364.469 160.443 328.108 155.986C291.746 151.529 254.176 149.369 219.063 159.758C189.751 168.431 163.746 185.373 138.024 201.856C112.303 218.339 85.9411 234.838 56.3216 242.414C42.9447 245.893 29.0694 247.079 15.2919 245.92C13.6712 243.422 12.0504 240.842 10.5431 238.207C7.29051 232.646 4.64446 226.756 2.64997 220.636C-0.0567048 212.036 -0.964333 203.154 1.2318 194.384C6.5317 173.331 27.8934 160.443 48.5419 153.415C59.5226 149.683 71.0138 146.854 81.9864 143.058C91.5813 139.737 100.779 135.675 108.907 129.63L109.069 129.501C121.752 119.998 130.836 106.272 139.985 92.8841C151.144 76.5705 162.409 60.7567 180.407 53.688C200.586 45.7489 223.179 51.4876 244.825 52.9465C292.921 56.1705 353.246 18.2883 401.788 30.999C410.611 33.2909 418.88 37.3288 426.099 42.8714C432.298 47.6027 437.785 53.3495 443.214 59.1124C448.887 65.1494 454.511 71.2025 460.816 76.1756C465.314 79.8278 470.381 82.7271 475.816 84.7595C486.764 88.717 498.45 88.1125 510.152 86.5408C515.946 85.7348 521.749 84.7434 527.454 83.9213C539.318 82.2126 552.365 81.7934 563.362 85.6784Z" fill="url(#paint4_linear_37_141)"/>
<g opacity="0.5">
<path style="mix-blend-mode:multiply" opacity="0.5" d="M382.5 29.4837L381.617 29.2338C379.234 28.5568 376.974 27.9281 375.896 26.7352C375.667 26.47 375.486 26.1673 375.361 25.8405C375.017 24.9369 375.017 23.9392 375.361 23.0356C375.409 22.9059 375.466 22.7793 375.531 22.6568C375.972 21.9156 376.593 21.2972 377.339 20.859C378.084 20.4208 378.928 20.1769 379.794 20.1501C380.73 20.1285 381.659 20.3215 382.508 20.7143C383.261 21.0519 383.951 21.5123 384.551 22.0765C384.688 22.2011 384.867 22.2702 385.053 22.2702C385.239 22.2702 385.418 22.2011 385.555 22.0765L391.666 16.7891C391.742 16.7226 391.805 16.6411 391.849 16.5497C391.892 16.4583 391.917 16.359 391.921 16.2578C391.925 16.1566 391.908 16.0557 391.871 15.9613C391.834 15.8669 391.778 15.7811 391.706 15.709C389.389 13.2906 386.392 11.6223 383.108 10.9214C382.939 10.8879 382.787 10.7973 382.678 10.6651C382.569 10.5329 382.509 10.3671 382.508 10.196V8.46306C382.508 8.26639 382.43 8.07778 382.29 7.93872C382.15 7.79966 381.961 7.72153 381.763 7.72153H376.09C375.892 7.72153 375.703 7.79966 375.563 7.93872C375.423 8.07778 375.345 8.26639 375.345 8.46306V10.8811C375.342 11.0328 375.294 11.1803 375.206 11.3041C375.118 11.4278 374.994 11.522 374.85 11.5742C371.541 12.7759 368.786 15.1374 367.103 18.2157C365.856 20.5811 365.353 23.2648 365.659 25.9182C365.966 28.5715 367.067 31.072 368.821 33.0946C370.629 35.0103 372.891 36.4433 375.401 37.2616C376.633 37.7049 377.873 38.0676 379.056 38.39C380.223 38.6971 381.373 39.0657 382.5 39.4943C383.354 39.7885 384.124 40.2834 384.745 40.937C385.734 42.1218 385.466 44.5399 384.202 45.8134C383.719 46.2936 383.139 46.6671 382.5 46.9095C380.94 47.5049 379.218 47.5334 377.638 46.9901C376.824 46.7059 376.057 46.304 375.361 45.7972C373.918 44.7272 372.733 43.3504 371.892 41.7672C371.797 41.6036 371.643 41.4815 371.462 41.4248C371.28 41.3681 371.084 41.381 370.912 41.4609L363.618 44.9509C363.444 45.0405 363.312 45.1948 363.252 45.3804C363.191 45.566 363.206 45.7679 363.294 45.9423C365.625 50.5709 369.628 54.1524 374.502 55.969L374.842 56.0819C374.995 56.1284 375.128 56.2225 375.223 56.3502C375.318 56.4778 375.369 56.6324 375.369 56.7911V59.6444C375.369 59.7418 375.388 59.8382 375.426 59.9282C375.463 60.0181 375.518 60.0999 375.587 60.1687C375.657 60.2376 375.739 60.2922 375.829 60.3295C375.92 60.3667 376.017 60.3859 376.115 60.3859H381.787C381.979 60.3776 382.161 60.2958 382.294 60.1577C382.426 60.0195 382.5 59.8356 382.5 59.6444V57.3392C382.501 57.1669 382.562 57.0002 382.673 56.8679C382.784 56.7355 382.938 56.6457 383.108 56.6138C386.107 56.0732 388.869 54.6365 391.026 52.4951C395.742 47.7155 396.228 39.8086 392.103 34.8597C389.445 31.6599 385.742 30.3945 382.5 29.4837Z" fill="url(#paint5_linear_37_141)"/>
<g style="mix-blend-mode:multiply" opacity="0.5">
<path style="mix-blend-mode:multiply" opacity="0.5" d="M46.5321 196.778H35.8674V210.69H46.5321V196.778Z" fill="url(#paint6_linear_37_141)"/>
<path style="mix-blend-mode:multiply" opacity="0.5" d="M60.9488 187.743H50.2842V210.682H60.9488V187.743Z" fill="url(#paint7_linear_37_141)"/>
<path style="mix-blend-mode:multiply" opacity="0.5" d="M75.3656 176.136H64.7009V210.69H75.3656V176.136Z" fill="url(#paint8_linear_37_141)"/>
</g>
<path style="mix-blend-mode:multiply" opacity="0.5" d="M537.283 102.064L525.711 122.005H532.081C532.085 123.921 531.781 125.826 531.181 127.647C530.197 130.66 528.46 133.375 526.132 135.538C523.622 137.801 520.574 139.39 517.275 140.156C513.776 140.994 510.121 140.936 506.651 139.987L506.286 140.89C509.796 142.723 513.716 143.644 517.68 143.566C521.859 143.516 525.957 142.406 529.585 140.342C533.361 138.136 536.517 135.017 538.758 131.274C540.489 128.42 541.676 125.272 542.259 121.989H548.864L537.283 102.064Z" fill="url(#paint9_linear_37_141)"/>
<g style="mix-blend-mode:multiply" opacity="0.5">
<path style="mix-blend-mode:multiply" opacity="0.5" d="M116.16 139.834C116.627 139.834 117.083 139.696 117.47 139.439C117.858 139.181 118.16 138.815 118.339 138.386C118.517 137.957 118.564 137.486 118.473 137.031C118.382 136.576 118.158 136.158 117.828 135.83C117.498 135.502 117.078 135.278 116.62 135.188C116.163 135.097 115.689 135.144 115.258 135.321C114.827 135.499 114.459 135.8 114.199 136.185C113.94 136.571 113.802 137.025 113.802 137.488C113.802 138.11 114.05 138.707 114.493 139.147C114.935 139.587 115.535 139.834 116.16 139.834Z" fill="url(#paint10_linear_37_141)"/>
<path style="mix-blend-mode:multiply" opacity="0.5" d="M118.218 140.463H114.11C113.4 140.463 112.719 140.743 112.216 141.241C111.713 141.74 111.43 142.416 111.427 143.122V149.57C111.477 149.962 111.67 150.322 111.968 150.582C112.267 150.842 112.651 150.984 113.048 150.981V143.098H113.372V159.783C113.367 160.071 113.472 160.35 113.666 160.564C113.861 160.778 114.129 160.911 114.418 160.935C114.57 160.944 114.723 160.922 114.867 160.87C115.011 160.818 115.142 160.737 115.254 160.633C115.365 160.529 115.454 160.404 115.515 160.264C115.576 160.125 115.608 159.975 115.609 159.823V151.086C115.609 150.949 115.664 150.818 115.761 150.721C115.858 150.624 115.99 150.57 116.128 150.57C116.265 150.57 116.397 150.624 116.494 150.721C116.592 150.818 116.646 150.949 116.646 151.086V159.847C116.67 160.127 116.799 160.387 117.007 160.577C117.215 160.767 117.487 160.872 117.769 160.872C118.051 160.872 118.323 160.767 118.531 160.577C118.739 160.387 118.867 160.127 118.891 159.847V143.203C118.891 143.203 118.891 143.155 118.891 143.122H119.215V151.005C119.645 151.005 120.057 150.835 120.361 150.533C120.665 150.231 120.836 149.821 120.836 149.393V143.155C120.845 142.453 120.575 141.777 120.084 141.273C119.594 140.769 118.924 140.477 118.218 140.463Z" fill="url(#paint11_linear_37_141)"/>
<path style="mix-blend-mode:multiply" opacity="0.5" d="M125.35 148.386C125.661 148.378 125.963 148.279 126.217 148.101C126.472 147.923 126.668 147.674 126.781 147.386C126.894 147.098 126.92 146.783 126.853 146.48C126.787 146.178 126.633 145.902 126.41 145.686C126.186 145.471 125.904 145.326 125.598 145.269C125.292 145.213 124.976 145.247 124.69 145.368C124.404 145.49 124.16 145.692 123.989 145.951C123.818 146.209 123.728 146.512 123.729 146.822C123.729 147.031 123.771 147.239 123.853 147.432C123.935 147.625 124.055 147.799 124.207 147.945C124.358 148.091 124.537 148.205 124.733 148.281C124.93 148.356 125.139 148.392 125.35 148.386Z" fill="url(#paint12_linear_37_141)"/>
<path style="mix-blend-mode:multiply" opacity="0.5" d="M126.719 148.805H123.988C123.754 148.805 123.521 148.851 123.304 148.94C123.087 149.03 122.891 149.161 122.725 149.327C122.559 149.492 122.428 149.689 122.339 149.905C122.25 150.121 122.205 150.352 122.206 150.586V154.116C122.241 154.38 122.373 154.622 122.576 154.796C122.78 154.97 123.04 155.064 123.308 155.059V150.586H123.518V160.186C123.505 160.384 123.57 160.58 123.701 160.73C123.831 160.881 124.016 160.975 124.215 160.992C124.318 160.999 124.422 160.986 124.519 160.952C124.617 160.918 124.706 160.865 124.782 160.796C124.858 160.726 124.919 160.642 124.961 160.548C125.003 160.454 125.025 160.353 125.026 160.25V155.93C125.018 155.88 125.021 155.83 125.035 155.782C125.049 155.734 125.073 155.689 125.106 155.651C125.138 155.613 125.179 155.583 125.225 155.562C125.27 155.541 125.32 155.531 125.37 155.531C125.42 155.531 125.47 155.541 125.516 155.562C125.561 155.583 125.602 155.613 125.635 155.651C125.667 155.689 125.691 155.734 125.705 155.782C125.719 155.83 125.722 155.88 125.715 155.93V160.25C125.734 160.434 125.821 160.605 125.96 160.729C126.098 160.853 126.278 160.922 126.464 160.922C126.65 160.922 126.83 160.853 126.969 160.729C127.107 160.605 127.194 160.434 127.214 160.25V150.586H127.424V155.059C127.717 155.057 127.998 154.94 128.204 154.733C128.411 154.526 128.527 154.247 128.527 153.955V150.586C128.528 150.35 128.482 150.117 128.391 149.899C128.3 149.682 128.167 149.484 127.999 149.318C127.83 149.152 127.631 149.022 127.411 148.933C127.191 148.845 126.956 148.802 126.719 148.805Z" fill="url(#paint13_linear_37_141)"/>
<path style="mix-blend-mode:multiply" opacity="0.5" d="M133.867 139.286C134.734 139.286 135.439 138.359 135.439 137.214C135.439 136.07 134.734 135.143 133.867 135.143C133 135.143 132.295 136.07 132.295 137.214C132.295 138.359 133 139.286 133.867 139.286Z" fill="url(#paint14_linear_37_141)"/>
<path style="mix-blend-mode:multiply" opacity="0.5" d="M137.919 142.373C137.913 142.025 137.812 141.685 137.626 141.389C137.44 141.094 137.178 140.854 136.865 140.696L134.775 139.616H133L130.893 140.672C130.576 140.828 130.309 141.067 130.12 141.365C129.931 141.662 129.828 142.005 129.823 142.357V149.111C129.834 149.487 129.984 149.845 130.244 150.117C130.505 150.389 130.857 150.556 131.233 150.586V142.389H131.509V159.758C131.485 160.032 131.562 160.305 131.726 160.526C131.89 160.747 132.13 160.901 132.4 160.959C132.546 160.954 132.689 160.92 132.821 160.858C132.952 160.796 133.07 160.708 133.166 160.6C133.263 160.491 133.336 160.364 133.381 160.226C133.426 160.088 133.443 159.943 133.429 159.799V150.675C133.418 150.547 133.457 150.419 133.539 150.32C133.621 150.221 133.739 150.157 133.867 150.143C133.996 150.157 134.114 150.22 134.198 150.319C134.281 150.419 134.322 150.546 134.313 150.675V159.799C134.287 159.938 134.292 160.082 134.328 160.219C134.364 160.356 134.43 160.484 134.521 160.593C134.613 160.702 134.727 160.79 134.856 160.85C134.985 160.91 135.126 160.942 135.269 160.942C135.412 160.942 135.553 160.91 135.682 160.85C135.811 160.79 135.925 160.702 136.017 160.593C136.108 160.484 136.174 160.356 136.21 160.219C136.246 160.082 136.251 159.938 136.225 159.799V142.389H136.501V150.594C136.695 150.59 136.885 150.542 137.058 150.454C137.231 150.366 137.381 150.24 137.498 150.086C137.776 149.745 137.925 149.317 137.919 148.877V142.373Z" fill="url(#paint15_linear_37_141)"/>
</g>
<path style="mix-blend-mode:multiply" opacity="0.5" d="M459.908 91.3446C459.908 91.3446 457.25 90.458 451.196 96.3177L440.662 92.9727L436.383 97.2284L438.311 96.769L446.982 100.477L440.759 106.667L438.328 106.32L434.811 109.826L440.264 110.85L441.302 116.282L444.819 112.776L444.47 110.358L450.694 104.168L454.422 112.792L453.96 114.719L458.247 110.455L454.884 99.9769C460.8 93.9964 459.908 91.3446 459.908 91.3446Z" fill="url(#paint16_linear_37_141)"/>
</g>
<path d="M504.82 332.26C451.383 347.501 390.507 356.125 325.895 356.125C261.283 356.125 200.399 347.501 146.979 332.26C175.043 267.191 244.573 221.128 325.895 221.128C407.217 221.128 476.748 267.191 504.82 332.26Z" fill="url(#paint17_linear_37_141)"/>
<path style="mix-blend-mode:screen" opacity="0.5" d="M504.82 332.26C451.383 347.501 390.507 356.125 325.895 356.125C261.283 356.125 200.399 347.501 146.979 332.26C175.043 267.191 244.573 221.128 325.895 221.128C407.217 221.128 476.748 267.191 504.82 332.26Z" fill="url(#paint18_linear_37_141)"/>
<path style="mix-blend-mode:multiply" d="M403.789 245.912C386.771 252.062 358.246 256.092 325.895 256.092C293.545 256.092 264.995 252.062 247.977 245.912C264.995 239.762 293.521 235.724 325.871 235.724C358.221 235.724 386.787 239.762 403.789 245.912Z" fill="url(#paint19_linear_37_141)"/>
<path d="M325.895 252.723C377.401 252.723 419.154 211.195 419.154 159.968C419.154 108.741 377.401 67.2128 325.895 67.2128C274.39 67.2128 232.636 108.741 232.636 159.968C232.636 211.195 274.39 252.723 325.895 252.723Z" fill="url(#paint20_linear_37_141)"/>
<path d="M325.895 233.742C308.745 233.74 292.125 227.824 278.868 217.002C265.611 206.18 256.537 191.12 253.192 174.39C249.846 157.66 252.437 140.293 260.522 125.249C268.607 110.206 281.686 98.4155 297.531 91.8876C313.376 85.3597 331.007 84.4979 347.419 89.4491C363.832 94.4004 378.01 104.858 387.539 119.041C397.068 133.224 401.359 150.254 399.679 167.23C397.999 184.206 390.453 200.078 378.327 212.141C371.458 219.011 363.287 224.458 354.287 228.166C345.287 231.874 335.637 233.769 325.895 233.742Z" fill="#F9E5E4"/>
<path d="M325.895 214.696C313.162 214.699 300.822 210.311 290.977 202.28C281.133 194.248 274.393 183.07 271.906 170.65C269.42 158.229 271.34 145.336 277.34 134.166C283.341 122.996 293.049 114.241 304.812 109.393C316.575 104.545 329.665 103.904 341.85 107.579C354.034 111.254 364.561 119.018 371.636 129.547C378.711 140.077 381.895 152.72 380.648 165.323C379.4 177.926 373.797 189.709 364.794 198.664C359.698 203.762 353.636 207.804 346.959 210.556C340.282 213.308 333.123 214.715 325.895 214.696Z" fill="url(#paint21_linear_37_141)"/>
<path d="M325.895 195.682C317.586 195.687 309.532 192.827 303.105 187.588C296.678 182.349 292.277 175.055 290.651 166.951C289.025 158.846 290.274 150.431 294.187 143.14C298.099 135.849 304.433 130.133 312.108 126.965C319.782 123.798 328.324 123.375 336.277 125.769C344.23 128.164 351.103 133.227 355.724 140.095C360.344 146.964 362.427 155.214 361.618 163.44C360.808 171.665 357.157 179.356 351.284 185.204C347.96 188.534 344.004 191.175 339.646 192.974C335.288 194.773 330.614 195.693 325.895 195.682Z" fill="#F9E5E4"/>
<path d="M325.895 176.668C322.01 176.669 318.246 175.33 315.243 172.879C312.239 170.428 310.183 167.017 309.425 163.228C308.667 159.438 309.253 155.505 311.084 152.097C312.915 148.689 315.877 146.018 319.466 144.539C323.055 143.06 327.048 142.865 330.766 143.986C334.483 145.107 337.695 147.476 339.854 150.688C342.012 153.901 342.984 157.758 342.604 161.603C342.223 165.449 340.514 169.044 337.767 171.776C336.219 173.341 334.37 174.581 332.331 175.421C330.291 176.262 328.103 176.686 325.895 176.668Z" fill="url(#paint22_linear_37_141)"/>
<path d="M210.092 181.238C209.595 180.461 209.339 179.556 209.354 178.635L212.045 178.691C211.749 179.759 211.049 180.672 210.092 181.238Z" fill="#F68895"/>
<path d="M237.92 177.901C238.221 177.032 238.266 176.095 238.05 175.201C237.183 175.419 236.308 175.645 235.432 175.854C235.964 176.831 236.856 177.565 237.92 177.901Z" fill="#F68895"/>
<path d="M229.055 212.116C229.208 212.48 229.499 212.77 229.865 212.922C230.086 213.029 230.321 213.108 230.562 213.156C230.852 213.219 231.148 213.251 231.445 213.253C231.8 213.253 232.154 213.234 232.507 213.196C232.911 213.138 233.311 213.058 233.706 212.955C234.161 212.845 234.607 212.705 235.043 212.536C235.533 212.354 236.012 212.144 236.478 211.907C237.553 211.368 238.575 210.731 239.533 210.005L240.295 209.384L240.684 209.054C240.813 208.941 240.943 208.828 241.064 208.707C241.324 208.473 241.575 208.231 241.826 207.982C242.077 207.732 242.321 207.458 242.572 207.176C243.601 206.04 244.523 204.812 245.327 203.508C245.684 202.928 246.016 202.332 246.34 201.711C246.77 200.905 247.15 199.994 247.523 199.091L247.969 197.923L247.758 197.117C247.677 196.81 247.596 196.504 247.507 196.19C247.418 195.875 247.345 195.561 247.248 195.255C246.778 193.643 246.219 192.031 245.627 190.556C245.035 189.081 244.379 187.662 243.714 186.348C243.05 185.035 242.353 183.826 241.656 182.721C241.486 182.439 241.308 182.173 241.146 181.915L240.619 181.15C240.287 180.642 239.938 180.174 239.614 179.731C239.29 179.288 238.949 178.877 238.641 178.49C238.479 178.296 238.333 178.103 238.18 177.926L237.726 177.418C237.229 176.852 236.701 176.314 236.145 175.806C235.798 175.469 235.418 175.167 235.011 174.903C234.711 174.734 234.5 174.686 234.379 174.766C234.257 174.847 234.249 175.072 234.322 175.411C234.437 175.872 234.592 176.322 234.784 176.757C235.003 177.321 235.303 177.982 235.635 178.756L235.894 179.352C235.983 179.554 236.073 179.763 236.162 179.989C236.348 180.424 236.551 180.876 236.745 181.359C236.94 181.843 237.167 182.351 237.369 182.875L237.685 183.681L238.001 184.487C238.439 185.623 238.86 186.856 239.29 188.146C239.719 189.435 240.1 190.806 240.497 192.224C240.894 193.643 241.251 195.126 241.575 196.649L241.672 197.133C241.064 197.995 240.44 198.817 239.8 199.551C239.16 200.284 238.358 201.163 237.645 201.929L237.353 202.235L236.753 202.839L236.154 203.412L235.87 203.694L235.57 203.968L235.003 204.5L232.88 206.426L231.948 207.288C231.656 207.562 231.38 207.845 231.137 208.094C230.887 208.337 230.649 208.593 230.424 208.86C230.212 209.084 230.015 209.321 229.833 209.569C229.672 209.79 229.524 210.019 229.387 210.255C229.27 210.456 229.175 210.67 229.103 210.891C228.936 211.28 228.919 211.716 229.055 212.116Z" fill="#F68895"/>
<path d="M234.2 197.697C234.115 198.869 233.742 200.003 233.115 200.999C232.488 201.995 231.625 202.823 230.602 203.412C229.225 204.218 227.523 204.556 226.55 205.83C225.465 207.24 225.74 209.215 225.489 210.972C225.32 212.183 224.878 213.34 224.197 214.358C223.516 215.376 222.612 216.228 221.555 216.851C220.497 217.474 219.311 217.851 218.086 217.955C216.861 218.059 215.629 217.888 214.48 217.452C213.331 217.017 212.295 216.33 211.451 215.442C210.606 214.554 209.973 213.487 209.599 212.323C209.226 211.158 209.122 209.924 209.294 208.713C209.466 207.503 209.91 206.346 210.594 205.33C211.882 203.412 213.925 202.106 215.456 200.365C217.077 198.447 218.033 196.061 219.257 193.852C220.481 191.644 222.134 189.492 224.524 188.67C229.338 186.993 234.516 193.353 234.2 197.697Z" fill="url(#paint23_linear_37_141)"/>
<path d="M206.591 199.978C206.591 200.3 206.591 200.623 206.639 200.945C206.688 201.268 206.639 201.59 206.696 201.904L206.737 202.71L206.931 202.944L207.531 203.678C208.58 204.949 209.738 206.127 210.991 207.2C212.163 208.192 213.424 209.075 214.759 209.835C215.075 210.021 215.391 210.19 215.707 210.359C216.024 210.529 216.348 210.666 216.656 210.819L217.126 211.028L217.596 211.222L218.52 211.576C219.655 211.97 220.824 212.262 222.012 212.447C222.563 212.519 223.074 212.584 223.576 212.6C224.043 212.628 224.511 212.628 224.978 212.6C225.387 212.577 225.793 212.526 226.194 212.447C226.543 212.382 226.887 212.293 227.223 212.181C227.506 212.091 227.778 211.969 228.033 211.818C228.247 211.696 228.445 211.55 228.625 211.383C228.917 211.124 229.1 210.764 229.136 210.376C229.139 209.985 229.011 209.605 228.771 209.295C228.635 209.108 228.48 208.935 228.309 208.78C228.108 208.599 227.897 208.429 227.677 208.272C227.417 208.087 227.146 207.917 226.866 207.764C226.583 207.603 226.275 207.426 225.943 207.256C225.61 207.087 225.27 206.918 224.905 206.748L223.747 206.208L221.129 205.04C220.902 204.919 220.667 204.814 220.424 204.701L220.059 204.54L219.695 204.355L218.949 203.992L218.503 203.766L218.187 203.605C217.174 203.065 216.096 202.493 215.027 201.808C214.216 201.276 213.333 200.687 212.482 200.051L212.434 199.559C212.263 198.019 212.158 196.496 212.069 195.029C211.98 193.562 211.964 192.136 211.955 190.773C211.947 189.411 211.955 188.114 212.036 186.897C212.036 186.598 212.036 186.292 212.036 186.002C212.036 185.712 212.036 185.422 212.093 185.139C212.093 184.567 212.174 184.027 212.215 183.527C212.255 183.028 212.296 182.512 212.336 182.036C212.336 181.803 212.377 181.577 212.393 181.351C212.409 181.126 212.442 180.916 212.458 180.706C212.531 179.9 212.612 179.143 212.644 178.538C212.684 178.066 212.684 177.592 212.644 177.12C212.644 176.781 212.531 176.58 212.393 176.531C212.255 176.483 212.069 176.596 211.842 176.854C211.529 177.224 211.257 177.626 211.032 178.055C210.732 178.595 210.383 179.272 210.035 180.07C209.946 180.271 209.857 180.489 209.767 180.698L209.5 181.375C209.322 181.835 209.135 182.335 208.965 182.858C208.795 183.382 208.6 183.93 208.438 184.47C208.357 184.769 208.276 185.059 208.187 185.365C208.098 185.671 208.033 185.978 207.952 186.292C207.628 187.557 207.361 188.928 207.142 190.378C206.923 191.829 206.737 193.369 206.631 194.965C206.526 196.561 206.534 198.277 206.591 199.978Z" fill="#F68895"/>
<path d="M229.063 210.98C228.933 211.348 228.933 211.749 229.063 212.116C229.216 212.48 229.507 212.77 229.873 212.922C230.095 213.029 230.329 213.108 230.57 213.156C230.86 213.219 231.156 213.251 231.453 213.253C231.808 213.253 232.162 213.234 232.515 213.196C232.919 213.138 233.319 213.058 233.714 212.955C234.169 212.845 234.615 212.705 235.051 212.536C235.541 212.354 236.02 212.144 236.486 211.907C237.561 211.368 238.584 210.731 239.541 210.005L240.303 209.384L240.692 209.054C240.821 208.941 240.951 208.828 241.072 208.707C241.332 208.473 241.583 208.231 241.834 207.982C242.085 207.732 242.329 207.458 242.58 207.176C243.609 206.04 244.531 204.812 245.335 203.508C245.692 202.928 246.024 202.332 246.348 201.711C245.355 202.727 244.054 203.39 242.645 203.597C241.743 203.698 240.829 203.606 239.966 203.328C239.102 203.05 238.308 202.592 237.636 201.985L237.345 202.291L236.745 202.896L236.145 203.468L235.862 203.75L235.562 204.024L234.995 204.556L232.871 206.482L231.939 207.345C231.648 207.619 231.372 207.901 231.129 208.151C230.878 208.394 230.64 208.649 230.416 208.917C230.204 209.141 230.007 209.377 229.824 209.626C229.664 209.847 229.516 210.075 229.379 210.311C229.249 210.522 229.143 210.746 229.063 210.98Z" fill="#F17785"/>
<path d="M206.931 202.976L207.531 203.71C208.58 204.981 209.738 206.159 210.991 207.232C212.163 208.225 213.424 209.107 214.759 209.868C215.075 210.053 215.391 210.222 215.707 210.392C216.024 210.561 216.348 210.698 216.656 210.851L217.126 211.061L217.596 211.254L218.52 211.609C219.655 212.003 220.824 212.294 222.012 212.479C222.563 212.552 223.074 212.616 223.576 212.632C224.043 212.661 224.511 212.661 224.978 212.632C225.387 212.609 225.793 212.558 226.194 212.479C226.543 212.415 226.887 212.326 227.223 212.213C227.506 212.123 227.778 212.001 228.033 211.85C228.247 211.728 228.445 211.582 228.625 211.415C228.917 211.156 229.1 210.796 229.136 210.408C229.139 210.017 229.011 209.637 228.771 209.328C228.635 209.14 228.48 208.968 228.309 208.812C228.108 208.631 227.897 208.461 227.677 208.304C227.417 208.119 227.146 207.95 226.866 207.796C226.583 207.635 226.275 207.458 225.943 207.288C225.61 207.119 225.27 206.95 224.905 206.781L223.746 206.241L221.129 205.072C220.902 204.951 220.667 204.846 220.424 204.733L220.059 204.572L219.695 204.387L218.949 204.024L218.503 203.799C217.689 204.504 216.743 205.043 215.719 205.385C214.696 205.726 213.614 205.864 212.537 205.789C211.46 205.714 210.408 205.428 209.442 204.948C208.476 204.469 207.614 203.804 206.907 202.993L206.931 202.976Z" fill="#F17785"/>
<path d="M211.85 303.735C211.761 304.284 211.834 304.847 212.062 305.355C212.289 305.864 212.661 306.295 213.131 306.596C214.081 307.184 215.075 307.699 216.105 308.136C216.619 308.358 217.079 308.69 217.451 309.108C217.824 309.525 218.1 310.019 218.26 310.554C214.712 311.273 211.049 311.221 207.523 310.401C207.346 307.905 207.702 305.399 208.568 303.05C209.784 302.655 210.578 303.743 211.85 303.735Z" fill="#171721"/>
<path d="M242.928 304.452C242.835 304.945 242.888 305.455 243.083 305.917C243.277 306.38 243.604 306.776 244.022 307.056C244.861 307.602 245.742 308.081 246.656 308.49C247.113 308.701 247.519 309.008 247.847 309.389C248.174 309.77 248.415 310.217 248.552 310.699C245.458 311.272 242.274 311.15 239.233 310.344C239.123 308.095 239.493 305.848 240.319 303.751C241.429 303.437 241.778 304.436 242.928 304.452Z" fill="#171721"/>
<path d="M243.504 306.161L239.573 305.839C240.911 287.679 238.722 264.313 234.047 246.71C230.319 265.635 223.244 288.784 212.369 304.799C210.734 304.37 209.178 303.687 207.758 302.776C218.228 284.729 221.494 258.381 222.223 251.111C222.426 249.12 222.677 247.129 223.034 245.155C223.43 242.473 224.14 239.846 225.149 237.328C225.524 236.437 225.965 235.575 226.47 234.749L229.095 230.042H230.716L233.317 230.098L238.844 230.227L239.371 231.92L241.105 237.562C248.198 259.78 249.028 283.507 243.504 306.161Z" fill="#29283A"/>
<path d="M239.573 305.839C240.911 287.679 238.723 264.313 234.047 246.71L237.604 245.308C237.604 245.308 244.541 282.98 239.573 305.839Z" fill="#171721"/>
<path d="M224.751 198.277C225.107 199.203 225.41 200.147 225.659 201.106C225.732 201.389 225.797 201.679 225.862 201.961C225.862 202.025 225.862 202.082 225.902 202.146C226.114 203.155 226.266 204.175 226.356 205.201L226.405 205.886C226.405 206.079 226.405 206.281 226.405 206.482C226.436 207.348 226.422 208.214 226.364 209.078C227.299 209.816 228.461 210.212 229.654 210.198C230.891 210.154 232.078 209.7 233.025 208.909C232.179 207.611 231.462 206.234 230.886 204.798C230.813 204.621 230.74 204.435 230.675 204.25C230.611 204.064 230.497 203.75 230.408 203.492V203.412C230.295 203.081 230.197 202.751 230.1 202.404C230.1 202.315 230.043 202.219 230.019 202.13C229.865 201.542 229.727 200.961 229.614 200.365C228.141 199.368 226.491 198.659 224.751 198.277Z" fill="#F68895"/>
<path d="M224.751 198.277C225.107 199.203 225.41 200.147 225.659 201.106C225.732 201.389 225.797 201.679 225.862 201.961C225.862 202.025 225.862 202.082 225.902 202.146C226.114 203.155 226.266 204.175 226.356 205.201C227.529 204.28 228.928 203.688 230.408 203.484V203.404C230.294 203.073 230.197 202.743 230.1 202.396C230.1 202.307 230.043 202.211 230.019 202.122C229.865 201.534 229.727 200.953 229.614 200.357C228.141 199.363 226.49 198.657 224.751 198.277Z" fill="#F17785"/>
<path d="M225.1 199.631C225.254 199.994 225.424 200.365 225.546 200.744C225.586 200.889 225.627 201.026 225.659 201.171C225.706 201.228 225.758 201.282 225.813 201.332C226.631 202.289 227.746 202.947 228.982 203.202C229.601 203.318 230.241 203.247 230.819 202.997C231.397 202.747 231.887 202.33 232.223 201.8C232.451 201.271 232.553 200.696 232.521 200.122C232.488 199.547 232.323 198.987 232.037 198.487C231.526 197.455 230.773 196.561 230.23 195.553C229.948 195.05 229.748 194.506 229.638 193.941C229.556 193.48 229.575 193.007 229.695 192.555C229.338 192.99 228.921 193.373 228.455 193.691C227.645 194.247 226.834 194.691 226.064 195.303C225.677 195.59 225.352 195.953 225.11 196.368C224.867 196.784 224.712 197.244 224.654 197.721C224.66 198.383 224.812 199.035 225.1 199.631Z" fill="#F68895"/>
<path d="M225.027 199.019C224.93 198.793 224.768 198.551 224.525 198.535C224.281 198.519 224.087 198.721 223.982 198.938C223.848 199.218 223.804 199.533 223.856 199.838C223.907 200.144 224.052 200.427 224.27 200.648C224.488 200.87 224.77 201.019 225.076 201.077C225.382 201.134 225.699 201.097 225.983 200.969C225.708 200.317 225.286 199.664 225.027 199.019Z" fill="#F68895"/>
<path d="M225.076 201.26C225.096 201.365 225.154 201.458 225.239 201.523C225.325 201.588 225.431 201.62 225.538 201.612C225.645 201.604 225.746 201.557 225.82 201.48C225.895 201.403 225.939 201.302 225.943 201.195C225.923 201.09 225.864 200.996 225.779 200.931C225.694 200.866 225.587 200.835 225.48 200.843C225.373 200.851 225.273 200.898 225.198 200.974C225.124 201.051 225.08 201.153 225.076 201.26Z" fill="#F4E4EB"/>
<path d="M217.183 211.254L217.507 211.488C218.787 212.157 227.636 216.84 229.095 230.026C230.908 230.491 232.774 230.716 234.646 230.695C236.067 230.687 237.483 230.544 238.876 230.268C239.509 223.513 239.063 218.701 238.155 215.292C238.496 211.028 241.826 207.965 241.826 207.965C241.121 204.072 237.337 202.323 237.337 202.323L232.077 206.515L231.453 207.014H231.113C229.541 206.966 228.188 206.563 226.615 206.652H226.526C226.382 206.665 226.238 206.686 226.097 206.716L226.024 206.668L219.241 204.153C219.241 204.153 216.68 206.418 217.183 211.254Z" fill="url(#paint24_linear_37_141)"/>
<path d="M226.016 206.652C226.128 207.402 226.378 208.126 226.753 208.788C227.006 209.253 227.359 209.656 227.788 209.968C228.217 210.281 228.711 210.494 229.233 210.593C229.746 210.667 230.27 210.596 230.746 210.389C231.221 210.183 231.629 209.848 231.924 209.424C232.219 208.999 232.388 208.501 232.414 207.986C232.44 207.47 232.32 206.958 232.069 206.507L231.445 207.006H231.105C229.533 206.958 228.179 206.555 226.607 206.644H226.518C226.374 206.657 226.23 206.678 226.089 206.708L226.016 206.652Z" fill="#F68895"/>
<path d="M264.94 107.853L174.328 118.281L181.797 182.478L272.409 172.051L264.94 107.853Z" fill="white"/>
<path d="M191.323 135.465L187.685 135.884L187.377 133.249L197.985 132.016L198.293 134.659L194.67 135.078L195.74 144.21L192.393 144.597L191.323 135.465Z" fill="url(#paint25_linear_37_141)"/>
<path d="M207.685 140.511L202.677 141.091L202.02 143.509L198.6 143.904L202.45 131.524L205.748 131.145L212.369 142.308L208.884 142.711L207.685 140.511ZM206.421 138.165L204.451 134.603L203.406 138.52L206.421 138.165Z" fill="url(#paint26_linear_37_141)"/>
<path d="M214.67 141.897C213.865 141.808 213.083 141.576 212.361 141.212L213.171 138.633C213.786 138.931 214.441 139.14 215.116 139.254C215.807 139.388 216.515 139.415 217.215 139.334C218.503 139.189 219.103 138.794 219.03 138.157C219.008 137.991 218.935 137.836 218.82 137.713C218.705 137.59 218.555 137.506 218.39 137.472C217.794 137.312 217.183 137.209 216.567 137.166C215.792 137.098 215.024 136.979 214.265 136.811C213.66 136.657 213.103 136.355 212.644 135.933C212.126 135.438 211.813 134.768 211.769 134.055C211.683 133.365 211.81 132.665 212.134 132.048C212.501 131.362 213.065 130.801 213.755 130.436C214.634 129.982 215.595 129.708 216.583 129.63C217.356 129.541 218.136 129.541 218.909 129.63C219.629 129.696 220.335 129.875 220.999 130.162L220.254 132.757C219.187 132.302 218.022 132.119 216.866 132.225C216.361 132.247 215.87 132.406 215.448 132.685C215.321 132.775 215.221 132.897 215.157 133.039C215.093 133.18 215.067 133.336 215.084 133.491C215.112 133.647 215.186 133.792 215.297 133.907C215.408 134.022 215.551 134.101 215.708 134.135C216.297 134.286 216.899 134.38 217.507 134.418C218.284 134.485 219.055 134.603 219.816 134.772C220.43 134.927 220.999 135.222 221.478 135.635C221.997 136.125 222.31 136.793 222.353 137.505C222.446 138.19 222.319 138.887 221.988 139.495C221.609 140.162 221.047 140.707 220.367 141.067C219.496 141.539 218.536 141.827 217.547 141.913C216.592 142.037 215.624 142.032 214.67 141.897Z" fill="url(#paint27_linear_37_141)"/>
<path d="M222.855 129.138L226.202 128.751L227.272 137.883L232.944 137.23L233.252 139.866L224.257 140.914L222.855 129.138Z" fill="url(#paint28_linear_37_141)"/>
<path d="M233.196 127.937L236.542 127.55L237.92 139.326L234.573 139.713L233.196 127.937Z" fill="url(#paint29_linear_37_141)"/>
<path d="M250.992 137.827L250.23 131.596L247.799 137.029L246.308 137.198L242.709 132.636L243.414 138.705L240.319 139.068L238.941 127.292L241.696 126.97L246.656 133.289L249.898 126.035L252.653 125.721L254.063 137.488L250.992 137.827Z" fill="url(#paint30_linear_37_141)"/>
<path d="M197.174 159.396C197.635 159.868 197.921 160.482 197.984 161.137C198.058 161.607 198.007 162.089 197.837 162.534C197.666 162.98 197.382 163.373 197.012 163.676C195.989 164.429 194.766 164.866 193.495 164.933L187.101 165.674L185.723 153.899L191.777 153.197C192.977 152.977 194.216 153.129 195.326 153.633C195.727 153.832 196.07 154.13 196.322 154.498C196.574 154.867 196.728 155.293 196.769 155.736C196.841 156.267 196.76 156.806 196.534 157.292C196.3 157.777 195.935 158.187 195.48 158.477C196.123 158.612 196.712 158.932 197.174 159.396ZM189.297 155.922L189.565 158.195L191.858 157.929C192.993 157.792 193.479 157.348 193.422 156.583C193.365 155.817 192.725 155.527 191.599 155.656L189.297 155.922ZM194.54 161.161C194.443 160.355 193.811 160.032 192.636 160.169L189.832 160.5L190.108 162.918L192.92 162.595C194.095 162.426 194.629 161.959 194.54 161.201V161.161Z" fill="url(#paint31_linear_37_141)"/>
<path d="M202.596 163.313C201.558 162.916 200.649 162.244 199.968 161.371C199.287 160.497 198.858 159.455 198.73 158.356C198.601 157.258 198.777 156.146 199.239 155.14C199.7 154.134 200.429 153.273 201.348 152.649C202.332 152.002 203.455 151.592 204.627 151.452C205.799 151.312 206.987 151.446 208.098 151.843C209.138 152.238 210.049 152.909 210.732 153.782C211.415 154.656 211.844 155.699 211.973 156.799C212.102 157.898 211.925 159.012 211.462 160.018C210.999 161.024 210.267 161.885 209.346 162.507C208.369 163.167 207.24 163.571 206.064 163.684C204.895 163.847 203.703 163.719 202.596 163.313ZM207.312 160.347C207.766 160.008 208.117 159.55 208.325 159.025C208.541 158.448 208.616 157.829 208.544 157.218C208.472 156.607 208.255 156.022 207.912 155.511C207.588 155.047 207.142 154.682 206.623 154.455C206.096 154.235 205.52 154.155 204.952 154.221C204.385 154.287 203.844 154.498 203.382 154.834C202.925 155.171 202.574 155.629 202.369 156.156C202.142 156.729 202.066 157.35 202.15 157.961C202.213 158.574 202.43 159.162 202.782 159.67C203.104 160.133 203.55 160.496 204.07 160.717C204.595 160.946 205.172 161.027 205.74 160.951C206.316 160.902 206.866 160.692 207.328 160.347H207.312Z" fill="url(#paint32_linear_37_141)"/>
<path d="M216.145 153.093C216.357 153.375 216.486 153.709 216.518 154.06C216.561 154.311 216.549 154.568 216.483 154.814C216.417 155.06 216.299 155.29 216.137 155.487C215.975 155.684 215.774 155.846 215.547 155.964C215.32 156.082 215.071 156.152 214.816 156.172C214.562 156.21 214.303 156.197 214.054 156.135C213.805 156.073 213.571 155.962 213.366 155.809C213.165 155.653 212.999 155.457 212.879 155.234C212.759 155.01 212.687 154.764 212.669 154.511C212.631 154.244 212.631 153.973 212.669 153.705C212.745 153.3 212.853 152.901 212.993 152.512L213.803 149.917L215.813 149.683L215.335 152.512C215.658 152.62 215.94 152.822 216.145 153.093Z" fill="url(#paint33_linear_37_141)"/>
<path d="M217.75 150.191L221.097 149.804L222.166 158.936L227.839 158.283L228.147 160.919L219.152 161.959L217.75 150.191Z" fill="url(#paint34_linear_37_141)"/>
<path d="M240.133 159.533L239.363 153.294L236.931 158.727L235.448 158.896L231.842 154.334L232.58 160.395L229.484 160.75L228.106 148.974L230.862 148.66L235.813 154.971L239.055 147.717L241.81 147.394L243.228 159.17L240.133 159.533Z" fill="url(#paint35_linear_37_141)"/>
<path d="M253.245 155.696L248.236 156.276L247.572 158.694L244.16 159.089L247.977 146.693L251.275 146.314L257.896 157.477L254.411 157.88L253.245 155.696ZM251.972 153.351L250.011 149.764L248.925 153.705L251.972 153.351Z" fill="url(#paint36_linear_37_141)"/>
<path d="M258.812 157.002C258.618 156.863 258.456 156.685 258.337 156.48C258.219 156.274 258.145 156.045 258.123 155.809C258.089 155.576 258.107 155.338 258.176 155.112C258.245 154.887 258.362 154.679 258.52 154.503C258.862 154.125 259.339 153.893 259.849 153.858C260.351 153.775 260.866 153.891 261.284 154.181C261.472 154.323 261.63 154.501 261.747 154.705C261.865 154.91 261.939 155.136 261.965 155.369C261.992 155.603 261.97 155.84 261.902 156.065C261.833 156.29 261.719 156.499 261.567 156.679C261.405 156.873 261.205 157.033 260.979 157.149C260.754 157.265 260.507 157.336 260.254 157.356C259.745 157.433 259.227 157.305 258.812 157.002ZM256.948 145.645L260.773 145.21L261.008 152.762L258.455 153.06L256.948 145.645Z" fill="url(#paint37_linear_37_141)"/>
<path d="M233.99 177.845C233.842 177.497 233.778 177.118 233.803 176.741C233.805 175.746 233.981 174.758 234.322 173.823C234.631 174.717 234.774 175.659 234.743 176.604C235.027 176.548 235.322 176.576 235.59 176.684C235.858 176.793 236.088 176.978 236.251 177.216C236.551 177.676 236.648 178.748 235.951 178.925C235.555 178.947 235.161 178.857 234.814 178.666C234.467 178.475 234.181 178.19 233.99 177.845Z" fill="#F68895"/>
<path d="M213.941 179.667C213.993 179.291 213.96 178.908 213.844 178.546C213.583 177.587 213.158 176.679 212.588 175.862C212.515 176.806 212.62 177.754 212.895 178.659C212.607 178.674 212.33 178.774 212.099 178.946C211.868 179.118 211.694 179.355 211.599 179.626C211.421 180.15 211.599 181.238 212.32 181.238C212.712 181.155 213.072 180.963 213.359 180.685C213.645 180.407 213.847 180.054 213.941 179.667Z" fill="#F68895"/>
<path d="M229.841 200.107C230.295 200.069 230.737 199.937 231.137 199.72C231.157 199.709 231.179 199.704 231.202 199.703C231.224 199.703 231.247 199.709 231.267 199.719C231.287 199.729 231.304 199.744 231.316 199.763C231.329 199.781 231.337 199.803 231.34 199.825C231.357 199.946 231.347 200.068 231.312 200.185C231.277 200.302 231.218 200.41 231.137 200.502C231.024 200.623 230.883 200.715 230.727 200.77C230.57 200.825 230.402 200.841 230.238 200.816C229.978 200.776 229.841 200.55 229.727 200.308C229.718 200.288 229.714 200.266 229.715 200.243C229.716 200.221 229.723 200.199 229.734 200.18C229.745 200.16 229.76 200.144 229.779 200.131C229.797 200.118 229.818 200.11 229.841 200.107Z" fill="#F4E4EB"/>
<path style="mix-blend-mode:multiply" d="M261.397 309.329C254.014 312.005 241.632 313.754 227.596 313.754C213.56 313.754 201.169 312.005 193.787 309.329C201.169 306.653 213.552 304.904 227.596 304.904C241.64 304.904 254.014 306.653 261.397 309.329Z" fill="url(#paint38_linear_37_141)"/>
<path d="M333.95 173.799C334.007 174.033 333.416 174.412 332.435 174.911C331.165 175.535 329.855 176.074 328.513 176.523C327.19 177.006 325.803 177.294 324.396 177.378C323.294 177.378 322.54 177.12 322.411 176.572C322.281 176.024 322.824 175.475 323.813 174.96C325.098 174.378 326.464 173.99 327.864 173.807C329.267 173.586 330.683 173.462 332.103 173.436C333.189 173.501 333.877 173.565 333.95 173.799Z" fill="#171721"/>
<path d="M327.24 175.951C327.192 176.58 327.135 177.345 327.014 178.224C326.892 179.102 326.746 180.102 326.552 181.206C326.357 182.31 326.114 183.503 325.822 184.785C325.531 186.066 325.198 187.428 324.793 188.855C323.938 191.954 322.91 195.003 321.714 197.987C321.471 198.592 321.219 199.188 320.968 199.776C320.717 200.365 320.449 200.945 320.158 201.509C319.933 202.02 319.571 202.46 319.113 202.781C318.654 203.102 318.116 203.292 317.556 203.331H317.329C315.838 203.444 314.42 203.516 313.059 203.557C311.697 203.597 310.385 203.613 309.145 203.557C306.961 203.55 304.78 203.41 302.613 203.138C298.926 202.654 296.681 201.759 296.624 200.647C296.624 200.083 297.135 199.527 298.14 199.035C299.512 198.414 300.962 197.977 302.451 197.737C304.594 197.341 306.759 197.072 308.934 196.931C310.174 196.851 311.47 196.786 312.816 196.746H313.051L315.125 196.698L315.871 195.279C317.386 192.385 318.804 189.597 320.06 187.025C320.693 185.752 321.284 184.519 321.835 183.366L323.359 180.142L324.615 177.466C325.004 176.66 325.328 175.999 325.628 175.451C326.211 174.355 326.633 173.759 326.9 173.839C327.167 173.92 327.297 174.694 327.24 175.951Z" fill="#F68895"/>
<path d="M318.715 203.033C318.362 203.201 317.98 203.302 317.589 203.331H317.362C315.871 203.444 314.453 203.516 313.091 203.557C311.73 203.597 310.417 203.613 309.177 203.557C306.993 203.55 304.812 203.41 302.645 203.138C298.958 202.654 296.713 201.759 296.657 200.647C296.657 200.083 297.167 199.527 298.172 199.035C299.545 198.414 300.995 197.977 302.483 197.737C304.626 197.341 306.791 197.072 308.966 196.931C310.206 196.851 311.503 196.786 312.848 196.746H313.083C313.041 197.461 313.148 198.177 313.396 198.85C313.644 199.522 314.028 200.137 314.526 200.655C315.651 201.792 317.079 202.586 318.642 202.944L318.715 203.033Z" fill="#F17785"/>
<path style="mix-blend-mode:multiply" d="M324.882 307.217C317.954 309.949 306.325 311.747 293.14 311.747C279.955 311.747 268.326 309.949 261.397 307.217C268.326 304.477 279.955 302.679 293.14 302.679C306.325 302.679 317.954 304.477 324.882 307.217Z" fill="url(#paint39_linear_37_141)"/>
<path d="M287.054 207.885C287.054 207.885 284.622 219.757 290.66 219.266L293.14 207.264L287.054 207.885Z" fill="#F68895"/>
<path d="M280.303 299.028C279.774 302.143 280.257 305.344 281.681 308.168C280.764 308.636 279.714 308.779 278.704 308.572C277.694 308.365 276.786 307.822 276.13 307.032C275.59 306.232 275.254 305.313 275.153 304.355C275.051 303.397 275.186 302.429 275.546 301.535C276.293 299.766 277.328 298.132 278.609 296.699C279.193 297.472 279.72 298.222 280.303 299.028Z" fill="#171721"/>
<path d="M305.32 301.583C305.218 302.113 305.276 302.66 305.484 303.157C305.693 303.654 306.045 304.08 306.495 304.38C307.394 304.971 308.34 305.489 309.323 305.927C309.816 306.152 310.253 306.482 310.604 306.892C310.956 307.303 311.213 307.785 311.357 308.305C308.034 308.918 304.615 308.789 301.349 307.926C301.229 305.507 301.627 303.089 302.516 300.833C303.699 300.503 304.08 301.567 305.32 301.583Z" fill="#171721"/>
<path d="M305.936 303.421L301.713 303.082C303.156 283.561 300.287 260.001 295.23 241.084C291.324 277.032 280.263 300.769 280.263 300.769H275.53C277.637 295.752 279.202 290.527 280.198 285.181C284.371 264.91 284.704 239.609 284.704 239.609C284.922 236.127 284.793 232.67 286.162 229.438C286.571 228.483 287.048 227.56 287.589 226.673L290.409 221.611L292.183 221.651L294.987 221.716L300.919 221.853L301.487 223.675L303.35 229.736C310.973 253.6 311.867 279.086 305.936 303.421Z" fill="#29283A"/>
<path d="M312.443 196.818L311.552 204.201C311.552 204.201 306.13 204.04 305.19 207.474C305.02 208.449 304.906 208.973 304.906 208.973C304.761 209.884 304.607 210.795 304.453 211.689C303.886 215.534 302.812 219.287 301.26 222.852C299.785 223.812 296.884 224.134 295.125 224.005C293.315 223.88 291.593 223.185 290.206 222.022C290.797 218.411 291.003 214.747 290.822 211.093C290.822 210.375 290.733 209.666 290.652 208.957C289.385 208.881 288.154 208.514 287.054 207.885C287.257 204.466 288.355 201.16 290.239 198.293C290.592 197.743 291.054 197.271 291.598 196.905C292.141 196.539 292.754 196.287 293.399 196.166C293.683 196.166 293.974 196.166 294.258 196.117C296.008 196.117 297.832 196.287 299.542 196.117C299.542 196.117 301.163 196.166 303.391 196.311C303.602 196.297 303.814 196.324 304.015 196.391L312.443 196.818Z" fill="url(#paint40_linear_37_141)"/>
<path d="M305.198 182.335C306.224 183.78 306.643 185.567 306.365 187.316C306.055 188.427 305.819 189.558 305.66 190.701C305.587 193.256 307.694 195.44 307.84 197.955C307.844 198.874 307.646 199.784 307.259 200.619C306.873 201.454 306.308 202.196 305.603 202.791C304.179 203.966 302.522 204.831 300.741 205.33C298.317 206.174 295.733 206.465 293.18 206.184C291.903 206.041 290.668 205.639 289.553 205.003C288.438 204.367 287.466 203.51 286.697 202.485C285.95 201.446 285.525 200.213 285.473 198.937C285.421 197.661 285.745 196.398 286.405 195.303C287.264 194.03 288.634 193.151 289.452 191.845C290.66 189.927 290.473 187.485 291.073 185.309C291.654 183.309 292.914 181.571 294.639 180.392C296.154 179.352 298.593 178.385 300.457 178.949C302.335 179.596 303.982 180.772 305.198 182.335Z" fill="url(#paint41_linear_37_141)"/>
<path d="M326.981 178.796L328.456 176.096C328.878 175.29 329.307 174.363 328.878 173.581C328.625 173.267 328.307 173.011 327.944 172.833C327.581 172.654 327.183 172.558 326.779 172.55C326.24 172.398 325.664 172.447 325.158 172.687C324.945 172.86 324.768 173.075 324.639 173.317C324.51 173.559 324.43 173.824 324.404 174.097C324.055 175.847 324.097 177.652 324.526 179.385C325.223 179.086 326.301 179.094 326.981 178.796Z" fill="#F68895"/>
<g style="mix-blend-mode:multiply" opacity="0.25">
<path d="M459.468 297.893C453.107 300.311 443.074 301.923 431.785 301.923C420.497 301.923 410.464 300.351 404.111 297.893C406.37 297.045 408.692 296.374 411.056 295.886C411.659 296.854 411.979 297.971 411.98 299.11C411.982 297.789 412.411 296.503 413.203 295.442C415.894 294.943 418.835 294.548 421.964 294.282C422.702 294.856 423.299 295.59 423.709 296.428C424.119 297.266 424.331 298.186 424.33 299.118C424.328 298.094 424.586 297.087 425.079 296.188C425.572 295.289 426.284 294.529 427.15 293.976C428.665 293.911 430.213 293.879 431.785 293.879H433.738C434.638 294.426 435.38 295.193 435.895 296.108C436.411 297.023 436.681 298.053 436.68 299.102C436.679 298.122 436.914 297.156 437.365 296.286C437.816 295.415 438.471 294.664 439.273 294.096C442.126 294.282 444.841 294.572 447.377 294.902C448.424 296.037 449.002 297.522 448.998 299.061C448.997 297.732 449.432 296.439 450.238 295.378C453.385 295.935 456.475 296.777 459.468 297.893Z" fill="#663147"/>
</g>
<path d="M437.093 199.173C437.021 200.205 436.283 201.132 434.873 201.873C434.508 202.075 434.129 202.25 433.739 202.397C433.3 202.566 432.85 202.706 432.393 202.816C431.331 203.094 430.246 203.28 429.152 203.372C428.547 203.426 427.915 203.467 427.255 203.493C426.842 203.493 426.445 203.493 425.983 203.493L426.153 203.171C419.52 202.144 413.006 200.467 406.704 198.166C396.518 194.418 391.185 190.42 391.185 190.42C391.04 190.307 390.91 190.194 390.788 190.09C390.48 189.824 390.213 189.574 389.978 189.34C389.038 188.397 388.625 187.728 388.851 187.277C389.078 186.825 389.937 186.712 391.283 186.785C391.623 186.785 391.988 186.833 392.393 186.874C392.798 186.914 393.203 186.954 393.681 187.011C394.605 187.115 395.626 187.285 396.761 187.446L400.416 188.01L404.557 188.655L406.777 189.001L407.92 189.179L409.079 189.356C409.889 189.469 410.651 189.606 411.461 189.727C412.272 189.848 413.082 189.969 413.892 190.114C414.703 190.259 415.513 190.364 416.323 190.501C417.134 190.638 417.944 190.75 418.665 190.887L419.808 191.097L420.918 191.29C421.575 191.411 422.207 191.548 422.831 191.677L423.066 191.718C424.468 192 425.789 192.33 427.029 192.637C427.644 192.79 428.244 192.975 428.811 193.144C429.379 193.314 429.938 193.483 430.432 193.668C431.399 194.008 432.346 194.401 433.268 194.845C433.682 195.055 434.079 195.28 434.427 195.498C434.767 195.697 435.092 195.921 435.4 196.167C436.534 197.15 437.166 198.174 437.093 199.173Z" fill="#F68895"/>
<path d="M437.093 199.173C437.02 200.205 436.283 201.132 434.873 201.873C434.508 202.075 434.129 202.25 433.738 202.397C433.3 202.566 432.85 202.706 432.393 202.816C431.331 203.094 430.246 203.28 429.152 203.372C428.547 203.426 427.914 203.467 427.255 203.493C426.842 203.493 426.445 203.493 425.983 203.493L426.153 203.171C419.52 202.144 413.006 200.467 406.704 198.166C410.511 197.938 414.243 197.009 417.709 195.425C419.692 194.627 421.444 193.35 422.806 191.71L423.041 191.75C424.443 192.032 425.764 192.362 427.004 192.669C427.62 192.822 428.22 193.007 428.787 193.177C429.354 193.346 429.913 193.515 430.408 193.7C431.374 194.04 432.321 194.433 433.244 194.877C433.657 195.087 434.054 195.312 434.403 195.53C434.743 195.729 435.068 195.953 435.375 196.199C436.534 197.15 437.166 198.174 437.093 199.173Z" fill="#F17785"/>
<path d="M422.944 290.252C421.306 289.988 419.626 290.221 418.122 290.921C418.234 291.81 418.072 292.711 417.659 293.507C417.245 294.303 416.599 294.955 415.805 295.378C415.083 295.685 414.338 295.936 413.576 296.128C412.811 296.319 412.122 296.734 411.599 297.32C411.334 297.626 411.175 298.007 411.145 298.409C411.114 298.811 411.214 299.212 411.429 299.553C415.443 300.032 419.51 299.825 423.455 298.941C422.61 296.123 422.435 293.148 422.944 290.252Z" fill="#30112A"/>
<path d="M449.492 291.445C451.039 294.027 451.771 297.012 451.591 300.013C448.622 300.239 445.638 300.195 442.677 299.884C442.328 298.473 442.969 297.046 443.487 295.7C444.006 294.354 444.938 292.92 444.679 291.493C446.281 291.396 447.888 291.38 449.492 291.445Z" fill="#30112A"/>
<path d="M435.886 223.627C431.914 223.615 427.959 224.135 424.127 225.175C424.127 225.239 423.852 227.706 423.398 231.663C421.461 248.767 416.323 293.726 416.323 293.726L423.957 293.645L428.747 273.455L436.21 241.73L436.275 243.568L440.902 273.68L443.909 293.476L450.538 293.403C450.538 293.403 451.162 257.23 451.502 237.934C451.624 230.946 451.705 226.174 451.705 226.134C446.603 224.451 441.261 223.605 435.886 223.627Z" fill="url(#paint42_linear_37_141)"/>
<path d="M423.957 293.677L436.17 241.73L430.943 238.998L423.398 293.677H423.957Z" fill="#30112A"/>
<path d="M451.705 226.118C451.705 226.118 451.624 230.954 451.502 237.918C438.212 240.473 423.398 231.663 423.398 231.663C423.852 227.706 424.128 225.215 424.128 225.175C427.959 224.135 431.914 223.615 435.886 223.627C441.26 223.599 446.602 224.44 451.705 226.118Z" fill="#30112A"/>
<path d="M446.575 185.544C445.526 186.848 444.754 188.351 444.306 189.961C444.172 190.554 443.993 191.135 443.771 191.702C443.537 192.27 443.093 192.728 442.531 192.983C442.387 191.966 442.4 190.933 442.572 189.92C442.732 188.887 443.162 187.914 443.82 187.099C444.519 186.267 445.498 185.714 446.575 185.544Z" fill="url(#paint43_linear_37_141)"/>
<path d="M468.86 220.774L468.731 220.871C468.253 221.226 467.774 221.564 467.296 221.894L467.15 221.999C466.04 222.757 459.047 227.375 451.891 228.093L451.842 223.845L452.191 223.547L452.944 222.862L453.333 222.507C453.463 222.394 453.585 222.265 453.722 222.144L454.533 221.403L455.343 220.597C456.405 219.541 457.499 218.429 458.585 217.228L458.958 216.817C458.876 216.704 458.787 216.599 458.698 216.486L458.325 216.019L457.953 215.543L457.564 215.1C457.434 214.955 457.312 214.802 457.191 214.657C457.069 214.511 456.94 214.35 456.802 214.213L456.032 213.407L455.846 213.198L455.643 212.996L455.254 212.593L455.035 212.368C454.598 211.908 454.136 211.489 453.706 211.054C453.585 210.917 453.447 210.812 453.325 210.691L452.936 210.336C452.677 210.095 452.442 209.853 452.183 209.635L451.429 208.958L451.251 208.797L451.064 208.636L450.7 208.321L449.987 207.693C449.743 207.499 449.508 207.298 449.282 207.104L448.941 206.806L448.779 206.661L448.609 206.524L447.944 205.968C447.531 205.589 447.134 205.25 446.721 204.904C446.518 204.735 446.332 204.549 446.145 204.388C445.959 204.227 445.781 204.066 445.611 203.896C444.971 203.315 444.373 202.69 443.82 202.026C443.591 201.75 443.377 201.462 443.179 201.164C443.011 200.909 442.867 200.64 442.75 200.358C442.539 199.862 442.491 199.312 442.612 198.786C442.768 198.273 443.109 197.834 443.568 197.553C443.849 197.37 444.151 197.222 444.468 197.11C444.843 196.973 445.231 196.876 445.627 196.82C446.635 196.681 447.657 196.681 448.666 196.82L449.565 196.941C449.865 196.997 450.173 197.07 450.497 197.142C451.173 197.294 451.839 197.487 452.491 197.722L453.536 198.109L453.803 198.214L454.063 198.335L454.606 198.577L455.7 199.101L456.794 199.721L457.353 200.052L457.637 200.221L457.912 200.406L459.022 201.164C459.403 201.422 459.76 201.712 460.124 201.97L460.676 202.413C460.862 202.566 461.048 202.712 461.227 202.881L461.607 203.227C462.005 203.59 462.418 203.961 462.799 204.356C462.985 204.541 463.18 204.735 463.358 204.936L463.877 205.492L464.136 205.774L464.387 206.065C464.719 206.459 465.044 206.871 465.376 207.274C465.546 207.475 465.692 207.693 465.854 207.91L466.316 208.555L466.778 209.208L467.215 209.893C467.353 210.127 467.499 210.361 467.645 210.586C467.791 210.812 467.937 211.054 468.066 211.296L468.877 212.754C468.925 212.851 468.974 212.932 469.014 213.028L469.144 213.302C469.225 213.488 469.306 213.673 469.395 213.851L469.881 214.939L470.23 215.745C470.596 216.615 470.66 217.582 470.412 218.493C470.164 219.404 469.618 220.206 468.86 220.774Z" fill="#F68895"/>
<path d="M458.901 216.849C458.82 216.736 458.731 216.631 458.642 216.518L458.269 216.051L457.896 215.575L457.507 215.132C457.377 214.987 457.256 214.834 457.134 214.689C457.013 214.544 456.883 214.383 456.745 214.246L455.975 213.44L455.789 213.23L455.586 213.028L455.197 212.625L454.979 212.4C454.541 211.94 454.079 211.521 453.65 211.086C453.528 210.949 453.39 210.844 453.269 210.723L452.88 210.369C452.62 210.127 452.385 209.885 452.126 209.667L451.372 208.99L451.194 208.829L451.008 208.668L450.643 208.354L449.93 207.725C449.687 207.532 449.452 207.33 449.225 207.137L448.885 206.838L448.722 206.693L448.552 206.556L447.888 206C447.474 205.621 447.077 205.283 446.664 204.936C446.461 204.767 446.275 204.582 446.089 204.42C445.902 204.259 445.724 204.098 445.554 203.929C444.914 203.347 444.316 202.722 443.763 202.059C443.534 201.783 443.321 201.495 443.123 201.196C442.954 200.942 442.811 200.672 442.693 200.39C442.482 199.894 442.434 199.344 442.555 198.819C442.712 198.305 443.052 197.866 443.512 197.585C443.793 197.403 444.095 197.254 444.411 197.142C444.786 197.005 445.175 196.908 445.57 196.852C446.578 196.713 447.601 196.713 448.609 196.852L449.509 196.973C449.808 197.029 450.116 197.102 450.44 197.174C451.117 197.326 451.782 197.52 452.434 197.755L453.479 198.142L453.747 198.246L454.006 198.367L454.549 198.609L455.643 199.133L456.737 199.754L457.296 200.084L457.58 200.253L457.856 200.439L458.966 201.196C459.347 201.454 459.703 201.744 460.068 202.002L460.619 202.446C460.805 202.599 460.992 202.744 461.17 202.913L461.551 203.26C461.948 203.622 462.361 203.993 462.742 204.388C458.285 209.063 458.901 216.849 458.901 216.849Z" fill="#F17785"/>
<path d="M341.827 216.654L341.892 218.492C341.933 217.879 341.911 217.263 341.827 216.654Z" fill="#311649"/>
<path d="M444.079 194.434C444.079 194.434 440.74 192.822 435.854 194.506L434.743 196.634L437.491 198.327L444.201 196.892L444.079 194.434Z" fill="#FED585"/>
<path d="M461.575 203.082C461.575 203.082 460.765 209.796 454.614 212.529L451.932 210.272C451.798 210.984 451.731 211.707 451.729 212.432L451.94 233.13L451.275 233.34C442.111 235.996 432.277 235.133 423.722 230.922L423.147 230.624L423.811 225.352L424.484 219.791C424.799 216.385 425.307 213 426.008 209.651C426.243 204.299 420.675 203.671 420.675 203.671C418.949 197.223 423.398 191.887 423.398 191.887C429.071 192.443 435.181 195.2 435.181 195.2C435.672 195.174 436.165 195.174 436.656 195.2C436.753 195.304 436.859 195.409 436.948 195.522L437.32 195.425L437.539 195.369L437.742 195.321L438.269 195.192L439.59 195.852L439.687 195.901L440.165 196.143L440.546 196.328L440.708 196.28L440.854 196.231C440.945 196.201 441.034 196.166 441.121 196.127C441.201 196.099 441.28 196.067 441.356 196.03L441.575 195.941L441.688 195.893L442.021 195.748L442.126 195.707L442.248 195.659L442.491 195.57L442.628 195.53H442.669L443.18 195.748C443.331 195.566 443.493 195.394 443.666 195.232C443.666 195.232 443.982 195.232 444.533 195.232C445.084 195.232 445.716 195.296 446.543 195.401C449.735 195.804 455.019 197.013 459.347 200.801C460.151 201.499 460.897 202.262 461.575 203.082Z" fill="url(#paint44_linear_37_141)"/>
<path d="M443.73 195.2C443.066 196.393 441.299 198.528 437.49 198.319C435.691 197.795 435.602 196.159 435.716 195.208H436.324C436.453 194.99 436.583 194.764 436.696 194.539C436.81 194.313 436.826 194.281 436.883 194.152C437.143 193.593 437.346 193.01 437.49 192.411C439.677 191.924 441.724 190.951 443.479 189.566C443.191 191.167 443.211 192.808 443.536 194.402C443.601 194.684 443.666 194.942 443.73 195.2Z" fill="#F68895"/>
<path d="M438.244 181.626C437.806 182.252 437.52 182.969 437.406 183.722C437.292 184.476 437.354 185.245 437.588 185.971C438.115 185.108 438.625 184.222 439.152 183.351C439.339 183.102 439.444 182.8 439.452 182.489C439.43 182.346 439.378 182.209 439.298 182.088C439.218 181.967 439.113 181.864 438.99 181.788C438.747 181.626 438.52 181.715 438.244 181.626Z" fill="#30112A"/>
<path d="M445.116 183.472C445.07 185.507 444.692 187.522 443.998 189.437C443.998 189.517 443.941 189.606 443.909 189.687C443.422 191.243 442.455 192.608 441.145 193.588C440.54 193.985 439.846 194.229 439.124 194.298C438.402 194.367 437.674 194.259 437.004 193.983C436.341 193.691 435.778 193.213 435.385 192.607C434.992 192.001 434.786 191.294 434.792 190.573C434.88 189.605 435.239 188.681 435.829 187.905C436.38 187.099 437.029 186.366 437.531 185.536C437.725 185.213 438.131 184.004 438.341 183.569C438.477 183.223 438.695 182.915 438.978 182.672C439.26 182.429 439.598 182.258 439.962 182.175C440.865 182.03 441.788 182.07 442.674 182.293C443.56 182.517 444.392 182.918 445.116 183.472Z" fill="#F68895"/>
<path d="M438.171 190.025C437.647 189.984 437.138 189.83 436.68 189.574C436.657 189.559 436.63 189.551 436.603 189.551C436.576 189.55 436.549 189.557 436.525 189.57C436.501 189.583 436.481 189.602 436.467 189.626C436.453 189.649 436.445 189.675 436.445 189.703C436.42 189.846 436.429 189.993 436.469 190.133C436.51 190.272 436.582 190.401 436.68 190.509C436.811 190.648 436.973 190.754 437.154 190.817C437.335 190.88 437.528 190.899 437.717 190.871C438.017 190.823 438.179 190.557 438.309 190.283C438.325 190.258 438.333 190.229 438.334 190.2C438.335 190.17 438.328 190.141 438.314 190.115C438.3 190.089 438.28 190.067 438.255 190.051C438.23 190.035 438.201 190.026 438.171 190.025Z" fill="#F4E4EB"/>
<path d="M444.079 194.434C444.079 194.434 442.79 198.609 437.49 198.327L438.965 201.648C438.965 201.648 444.379 200.036 445.23 195.377L444.079 194.434Z" fill="#FFE6BB"/>
<path d="M435.854 194.506L434.079 195.312C433.742 196.235 433.655 197.229 433.827 198.196C433.999 199.162 434.424 200.066 435.059 200.817L437.491 198.351C434.897 197.561 435.854 194.506 435.854 194.506Z" fill="#FFE6BB"/>
<path d="M447.191 184.351C447.107 184.907 446.818 185.413 446.381 185.769C445.74 186.454 445.068 187.059 444.427 187.744C443.894 187.16 443.605 186.397 443.617 185.608C443.641 184.824 443.959 184.076 444.509 183.513C443.941 183.585 443.366 183.674 442.782 183.738C441.748 183.848 440.703 183.667 439.768 183.214C439.215 182.914 438.749 182.478 438.414 181.947C438.079 181.417 437.887 180.809 437.855 180.184C437.84 179.947 437.854 179.708 437.896 179.474C437.979 178.973 438.166 178.494 438.445 178.068C438.724 177.642 439.089 177.279 439.517 177C439.444 177.669 440.003 178.112 440.659 178.306C441.316 178.499 442.021 178.459 442.685 178.62C443.163 178.745 443.607 178.975 443.984 179.293C444.362 179.611 444.663 180.009 444.865 180.458C445.195 181.084 445.262 181.814 445.051 182.489C445.558 182.636 446.041 182.853 446.486 183.134C446.693 183.265 446.865 183.445 446.988 183.657C447.111 183.868 447.18 184.107 447.191 184.351Z" fill="url(#paint45_linear_37_141)"/>
<path d="M453.009 223.442C452.963 222.904 452.763 222.391 452.433 221.962C452.102 221.534 451.656 221.208 451.145 221.024C449.938 220.605 448.625 221.024 447.426 221.5C446.854 221.7 446.309 221.971 445.805 222.306C445.288 222.638 444.917 223.154 444.768 223.748C444.698 224.672 444.988 225.587 445.578 226.303C445.951 226.884 446.437 227.528 447.134 227.545C447.831 227.561 448.277 227.005 448.852 226.739C449.144 226.604 449.461 226.529 449.782 226.517C450.104 226.505 450.425 226.556 450.727 226.669C451.029 226.781 451.305 226.952 451.539 227.172C451.774 227.391 451.962 227.655 452.094 227.948C452.805 226.556 453.121 224.999 453.009 223.442Z" fill="#F68895"/>
<path d="M444.2 187.784C444.344 187.581 444.513 187.397 444.703 187.236C444.897 187.074 445.146 186.991 445.4 187.003C445.623 187.043 445.826 187.159 445.973 187.331C446.121 187.503 446.205 187.72 446.21 187.946C446.213 188.401 446.08 188.846 445.829 189.227C445.665 189.527 445.455 189.799 445.205 190.033C444.947 190.273 444.61 190.411 444.257 190.42C444.081 190.423 443.907 190.376 443.757 190.285C443.606 190.193 443.484 190.061 443.406 189.904C443.801 189.253 444.07 188.534 444.2 187.784Z" fill="#F68895"/>
<path d="M393.26 187.688C392.769 186.915 392.038 186.324 391.177 186.003C390.326 185.679 389.439 185.454 388.535 185.334L383.673 184.464C383.332 184.387 382.977 184.387 382.636 184.464C382.485 184.482 382.343 184.547 382.231 184.649C382.12 184.752 382.044 184.888 382.014 185.036C381.984 185.185 382.002 185.339 382.066 185.476C382.13 185.614 382.236 185.728 382.368 185.802C382.584 185.928 382.82 186.015 383.065 186.06C383.581 186.159 384.09 186.291 384.589 186.454C385.089 186.629 385.52 186.956 385.821 187.389C386.057 187.982 386.26 188.588 386.428 189.203C386.687 189.693 387.077 190.102 387.554 190.387C388.032 190.671 388.579 190.819 389.135 190.815C390.248 190.789 391.347 190.559 392.377 190.138C392.62 189.3 392.968 188.461 393.26 187.688Z" fill="#F68895"/>
</g>
<defs>
<linearGradient id="paint0_linear_37_141" x1="340.595" y1="433.365" x2="344.027" y2="42.3472" gradientUnits="userSpaceOnUse">
<stop stop-color="#2795F8"/>
<stop offset="0.08" stop-color="#389FF7"/>
<stop offset="0.28" stop-color="#61B5F4"/>
<stop offset="0.48" stop-color="#81C6F3"/>
<stop offset="0.67" stop-color="#98D3F1"/>
<stop offset="0.84" stop-color="#A6DAF0"/>
<stop offset="1" stop-color="#ABDDF0"/>
</linearGradient>
<linearGradient id="paint1_linear_37_141" x1="340.595" y1="433.365" x2="344.027" y2="42.3472" gradientUnits="userSpaceOnUse">
<stop stop-color="#2795F8"/>
<stop offset="0.08" stop-color="#389FF7"/>
<stop offset="0.28" stop-color="#61B5F4"/>
<stop offset="0.48" stop-color="#81C6F3"/>
<stop offset="0.67" stop-color="#98D3F1"/>
<stop offset="0.84" stop-color="#A6DAF0"/>
<stop offset="1" stop-color="#ABDDF0"/>
</linearGradient>
<linearGradient id="paint2_linear_37_141" x1="340.596" y1="433.365" x2="344.027" y2="42.3472" gradientUnits="userSpaceOnUse">
<stop stop-color="#2795F8"/>
<stop offset="0.08" stop-color="#389FF7"/>
<stop offset="0.28" stop-color="#61B5F4"/>
<stop offset="0.48" stop-color="#81C6F3"/>
<stop offset="0.67" stop-color="#98D3F1"/>
<stop offset="0.84" stop-color="#A6DAF0"/>
<stop offset="1" stop-color="#ABDDF0"/>
</linearGradient>
<linearGradient id="paint3_linear_37_141" x1="340.596" y1="433.365" x2="344.027" y2="42.3472" gradientUnits="userSpaceOnUse">
<stop stop-color="#FFB442"/>
<stop offset="0.08" stop-color="#FCC019"/>
<stop offset="0.28" stop-color="#FE8905"/>
<stop offset="0.48" stop-color="#81C6F3"/>
<stop offset="0.67" stop-color="#98D3F1"/>
<stop offset="0.84" stop-color="#A6DAF0"/>
<stop offset="1" stop-color="#ABDDF0"/>
</linearGradient>
<linearGradient id="paint4_linear_37_141" x1="426036" y1="73063.3" x2="224127" y2="-97815.6" gradientUnits="userSpaceOnUse">
<stop stop-color="#2795F8"/>
<stop offset="0.08" stop-color="#389FF7"/>
<stop offset="0.28" stop-color="#61B5F4"/>
<stop offset="0.48" stop-color="#81C6F3"/>
<stop offset="0.67" stop-color="#98D3F1"/>
<stop offset="0.84" stop-color="#A6DAF0"/>
<stop offset="1" stop-color="#ABDDF0"/>
</linearGradient>
<linearGradient id="paint5_linear_37_141" x1="765.972" y1="179.57" x2="188.608" y2="-39.8612" gradientUnits="userSpaceOnUse">
<stop stop-color="#2795F8"/>
<stop offset="0.32" stop-color="#5BB1F5"/>
<stop offset="0.62" stop-color="#87C9F2"/>
<stop offset="0.86" stop-color="#A1D8F1"/>
<stop offset="1" stop-color="#ABDDF0"/>
</linearGradient>
<linearGradient id="paint6_linear_37_141" x1="7915.54" y1="7331.22" x2="-106.471" y2="5006.62" gradientUnits="userSpaceOnUse">
<stop stop-color="#2795F8"/>
<stop offset="0.32" stop-color="#5BB1F5"/>
<stop offset="0.62" stop-color="#87C9F2"/>
<stop offset="0.86" stop-color="#A1D8F1"/>
<stop offset="1" stop-color="#ABDDF0"/>
</linearGradient>
<linearGradient id="paint7_linear_37_141" x1="7973.35" y1="11704.2" x2="-461.692" y2="10221.9" gradientUnits="userSpaceOnUse">
<stop stop-color="#2795F8"/>
<stop offset="0.32" stop-color="#5BB1F5"/>
<stop offset="0.62" stop-color="#87C9F2"/>
<stop offset="0.86" stop-color="#A1D8F1"/>
<stop offset="1" stop-color="#ABDDF0"/>
</linearGradient>
<linearGradient id="paint8_linear_37_141" x1="8036.95" y1="17102.5" x2="-541.844" y2="16101.6" gradientUnits="userSpaceOnUse">
<stop stop-color="#2795F8"/>
<stop offset="0.32" stop-color="#5BB1F5"/>
<stop offset="0.62" stop-color="#87C9F2"/>
<stop offset="0.86" stop-color="#A1D8F1"/>
<stop offset="1" stop-color="#ABDDF0"/>
</linearGradient>
<linearGradient id="paint9_linear_37_141" x1="46448.2" y1="13190.5" x2="10324.2" y2="-817.195" gradientUnits="userSpaceOnUse">
<stop stop-color="#2795F8"/>
<stop offset="0.32" stop-color="#5BB1F5"/>
<stop offset="0.62" stop-color="#87C9F2"/>
<stop offset="0.86" stop-color="#A1D8F1"/>
<stop offset="1" stop-color="#ABDDF0"/>
</linearGradient>
<linearGradient id="paint10_linear_37_141" x1="3781.3" y1="2059.97" x2="421.035" y2="782.873" gradientUnits="userSpaceOnUse">
<stop stop-color="#2795F8"/>
<stop offset="0.32" stop-color="#5BB1F5"/>
<stop offset="0.62" stop-color="#87C9F2"/>
<stop offset="0.86" stop-color="#A1D8F1"/>
<stop offset="1" stop-color="#ABDDF0"/>
</linearGradient>
<linearGradient id="paint11_linear_37_141" x1="7377.14" y1="8832.66" x2="-69.7641" y2="7539.07" gradientUnits="userSpaceOnUse">
<stop stop-color="#2795F8"/>
<stop offset="0.32" stop-color="#5BB1F5"/>
<stop offset="0.62" stop-color="#87C9F2"/>
<stop offset="0.86" stop-color="#A1D8F1"/>
<stop offset="1" stop-color="#ABDDF0"/>
</linearGradient>
<linearGradient id="paint12_linear_37_141" x1="2573.74" y1="1455.24" x2="321.943" y2="599.502" gradientUnits="userSpaceOnUse">
<stop stop-color="#2795F8"/>
<stop offset="0.32" stop-color="#5BB1F5"/>
<stop offset="0.62" stop-color="#87C9F2"/>
<stop offset="0.86" stop-color="#A1D8F1"/>
<stop offset="1" stop-color="#ABDDF0"/>
</linearGradient>
<linearGradient id="paint13_linear_37_141" x1="5001.52" y1="5333.68" x2="38.273" y2="4360.75" gradientUnits="userSpaceOnUse">
<stop stop-color="#2795F8"/>
<stop offset="0.32" stop-color="#5BB1F5"/>
<stop offset="0.62" stop-color="#87C9F2"/>
<stop offset="0.86" stop-color="#A1D8F1"/>
<stop offset="1" stop-color="#ABDDF0"/>
</linearGradient>
<linearGradient id="paint14_linear_37_141" x1="2586.24" y1="1803.93" x2="217.461" y2="1124.35" gradientUnits="userSpaceOnUse">
<stop stop-color="#2795F8"/>
<stop offset="0.32" stop-color="#5BB1F5"/>
<stop offset="0.62" stop-color="#87C9F2"/>
<stop offset="0.86" stop-color="#A1D8F1"/>
<stop offset="1" stop-color="#ABDDF0"/>
</linearGradient>
<linearGradient id="paint15_linear_37_141" x1="6404.39" y1="9042.43" x2="-63.7857" y2="8114.98" gradientUnits="userSpaceOnUse">
<stop stop-color="#2795F8"/>
<stop offset="0.32" stop-color="#5BB1F5"/>
<stop offset="0.62" stop-color="#87C9F2"/>
<stop offset="0.86" stop-color="#A1D8F1"/>
<stop offset="1" stop-color="#ABDDF0"/>
</linearGradient>
<linearGradient id="paint16_linear_37_141" x1="24819.3" y1="7216.45" x2="6908.54" y2="402.831" gradientUnits="userSpaceOnUse">
<stop stop-color="#2795F8"/>
<stop offset="0.32" stop-color="#5BB1F5"/>
<stop offset="0.62" stop-color="#87C9F2"/>
<stop offset="0.86" stop-color="#A1D8F1"/>
<stop offset="1" stop-color="#ABDDF0"/>
</linearGradient>
<linearGradient id="paint17_linear_37_141" x1="351.811" y1="376.284" x2="273.193" y2="237.945" gradientUnits="userSpaceOnUse">
<stop stop-color="#FF7B00"/>
<stop offset="0.09" stop-color="#FE8905"/>
<stop offset="0.29" stop-color="#FDA10E"/>
<stop offset="0.5" stop-color="#FDB214"/>
<stop offset="0.73" stop-color="#FCBD18"/>
<stop offset="1" stop-color="#FCC019"/>
</linearGradient>
<linearGradient id="paint18_linear_37_141" x1="351.811" y1="376.284" x2="273.193" y2="237.945" gradientUnits="userSpaceOnUse">
<stop stop-color="#FF7B00"/>
<stop offset="0.09" stop-color="#FE8905"/>
<stop offset="0.29" stop-color="#FDA10E"/>
<stop offset="0.5" stop-color="#FDB214"/>
<stop offset="0.73" stop-color="#FCBD18"/>
<stop offset="1" stop-color="#FCC019"/>
</linearGradient>
<linearGradient id="paint19_linear_37_141" x1="97923.5" y1="8178.95" x2="91645.4" y2="-9964.51" gradientUnits="userSpaceOnUse">
<stop stop-color="#FF7B00"/>
<stop offset="0.09" stop-color="#FE8905"/>
<stop offset="0.29" stop-color="#FDA10E"/>
<stop offset="0.5" stop-color="#FDB214"/>
<stop offset="0.73" stop-color="#FCBD18"/>
<stop offset="1" stop-color="#FCC019"/>
</linearGradient>
<linearGradient id="paint20_linear_37_141" x1="381.131" y1="251.74" x2="277.536" y2="77.7364" gradientUnits="userSpaceOnUse">
<stop stop-color="#EF076C"/>
<stop offset="0.18" stop-color="#EF0A6B"/>
<stop offset="0.33" stop-color="#F01466"/>
<stop offset="0.47" stop-color="#F1255E"/>
<stop offset="0.6" stop-color="#F33E54"/>
<stop offset="0.72" stop-color="#F55D46"/>
<stop offset="0.84" stop-color="#F88334"/>
<stop offset="0.96" stop-color="#FBAF21"/>
<stop offset="1" stop-color="#FCC019"/>
</linearGradient>
<linearGradient id="paint21_linear_37_141" x1="52036.1" y1="34296.6" x2="37965.8" y2="10663.4" gradientUnits="userSpaceOnUse">
<stop stop-color="#EF076C"/>
<stop offset="0.18" stop-color="#EF0A6B"/>
<stop offset="0.33" stop-color="#F01466"/>
<stop offset="0.47" stop-color="#F1255E"/>
<stop offset="0.6" stop-color="#F33E54"/>
<stop offset="0.72" stop-color="#F55D46"/>
<stop offset="0.84" stop-color="#F88334"/>
<stop offset="0.96" stop-color="#FBAF21"/>
<stop offset="1" stop-color="#FCC019"/>
</linearGradient>
<linearGradient id="paint22_linear_37_141" x1="16103.2" y1="10575.5" x2="11810.1" y2="3364.77" gradientUnits="userSpaceOnUse">
<stop stop-color="#EF076C"/>
<stop offset="0.18" stop-color="#EF0A6B"/>
<stop offset="0.33" stop-color="#F01466"/>
<stop offset="0.47" stop-color="#F1255E"/>
<stop offset="0.6" stop-color="#F33E54"/>
<stop offset="0.72" stop-color="#F55D46"/>
<stop offset="0.84" stop-color="#F88334"/>
<stop offset="0.96" stop-color="#FBAF21"/>
<stop offset="1" stop-color="#FCC019"/>
</linearGradient>
<linearGradient id="paint23_linear_37_141" x1="212.168" y1="220.815" x2="229.527" y2="192.854" gradientUnits="userSpaceOnUse">
<stop stop-color="#631DE3"/>
<stop offset="0.01" stop-color="#641DE3"/>
<stop offset="0.69" stop-color="#B90CDC"/>
<stop offset="1" stop-color="#DA05D9"/>
</linearGradient>
<linearGradient id="paint24_linear_37_141" x1="241.753" y1="229.51" x2="224.356" y2="200.346" gradientUnits="userSpaceOnUse">
<stop stop-color="#C5205C"/>
<stop offset="0.12" stop-color="#D0275F"/>
<stop offset="0.45" stop-color="#E83766"/>
<stop offset="0.75" stop-color="#F6416B"/>
<stop offset="1" stop-color="#FB446C"/>
</linearGradient>
<linearGradient id="paint25_linear_37_141" x1="174.803" y1="150.786" x2="219.71" y2="118.136" gradientUnits="userSpaceOnUse">
<stop stop-color="#C5205C"/>
<stop offset="1" stop-color="#FB446C"/>
</linearGradient>
<linearGradient id="paint26_linear_37_141" x1="3629.27" y1="1785.61" x2="4422.87" y2="1306.39" gradientUnits="userSpaceOnUse">
<stop stop-color="#C5205C"/>
<stop offset="1" stop-color="#FB446C"/>
</linearGradient>
<linearGradient id="paint27_linear_37_141" x1="2893.04" y1="1805.75" x2="3573.96" y2="1479.73" gradientUnits="userSpaceOnUse">
<stop stop-color="#C5205C"/>
<stop offset="1" stop-color="#FB446C"/>
</linearGradient>
<linearGradient id="paint28_linear_37_141" x1="2877.15" y1="1838.94" x2="3542.7" y2="1520.47" gradientUnits="userSpaceOnUse">
<stop stop-color="#C5205C"/>
<stop offset="1" stop-color="#FB446C"/>
</linearGradient>
<linearGradient id="paint29_linear_37_141" x1="1449.81" y1="1886.03" x2="1804.7" y2="1808.86" gradientUnits="userSpaceOnUse">
<stop stop-color="#C5205C"/>
<stop offset="1" stop-color="#FB446C"/>
</linearGradient>
<linearGradient id="paint30_linear_37_141" x1="4181.94" y1="2132.77" x2="5030.34" y2="1594.74" gradientUnits="userSpaceOnUse">
<stop stop-color="#C5205C"/>
<stop offset="1" stop-color="#FB446C"/>
</linearGradient>
<linearGradient id="paint31_linear_37_141" x1="3311.46" y1="1897.94" x2="4055.73" y2="1490.64" gradientUnits="userSpaceOnUse">
<stop stop-color="#C5205C"/>
<stop offset="1" stop-color="#FB446C"/>
</linearGradient>
<linearGradient id="paint32_linear_37_141" x1="3644.66" y1="1961.81" x2="4412.9" y2="1498" gradientUnits="userSpaceOnUse">
<stop stop-color="#C5205C"/>
<stop offset="1" stop-color="#FB446C"/>
</linearGradient>
<linearGradient id="paint33_linear_37_141" x1="1225.9" y1="1115.44" x2="1501.86" y2="1022.83" gradientUnits="userSpaceOnUse">
<stop stop-color="#C5205C"/>
<stop offset="1" stop-color="#FB446C"/>
</linearGradient>
<linearGradient id="paint34_linear_37_141" x1="2960.62" y1="2043.97" x2="3626.1" y2="1725.37" gradientUnits="userSpaceOnUse">
<stop stop-color="#C5205C"/>
<stop offset="1" stop-color="#FB446C"/>
</linearGradient>
<linearGradient id="paint35_linear_37_141" x1="4274.38" y1="2318.6" x2="5123.07" y2="1780.71" gradientUnits="userSpaceOnUse">
<stop stop-color="#C5205C"/>
<stop offset="1" stop-color="#FB446C"/>
</linearGradient>
<linearGradient id="paint36_linear_37_141" x1="3990.09" y1="2340.33" x2="4783.47" y2="1862.9" gradientUnits="userSpaceOnUse">
<stop stop-color="#C5205C"/>
<stop offset="1" stop-color="#FB446C"/>
</linearGradient>
<linearGradient id="paint37_linear_37_141" x1="1637.25" y1="2274.02" x2="2012.72" y2="2187.17" gradientUnits="userSpaceOnUse">
<stop stop-color="#C5205C"/>
<stop offset="1" stop-color="#FB446C"/>
</linearGradient>
<linearGradient id="paint38_linear_37_141" x1="25775.5" y1="4027.34" x2="24590.4" y2="607.233" gradientUnits="userSpaceOnUse">
<stop stop-color="#FF7B00"/>
<stop offset="0.09" stop-color="#FE8905"/>
<stop offset="0.29" stop-color="#FDA10E"/>
<stop offset="0.5" stop-color="#FDB214"/>
<stop offset="0.73" stop-color="#FCBD18"/>
<stop offset="1" stop-color="#FCC019"/>
</linearGradient>
<linearGradient id="paint39_linear_37_141" x1="39558.8" y1="4975.56" x2="37981.7" y2="-783.826" gradientUnits="userSpaceOnUse">
<stop stop-color="#FF7B00"/>
<stop offset="0.09" stop-color="#FE8905"/>
<stop offset="0.29" stop-color="#FDA10E"/>
<stop offset="0.5" stop-color="#FDB214"/>
<stop offset="0.73" stop-color="#FCBD18"/>
<stop offset="1" stop-color="#FCC019"/>
</linearGradient>
<linearGradient id="paint40_linear_37_141" x1="305.312" y1="221.442" x2="296.837" y2="195.614" gradientUnits="userSpaceOnUse">
<stop stop-color="#FF7A83"/>
<stop offset="0.14" stop-color="#FF9284"/>
<stop offset="0.35" stop-color="#FEAF84"/>
<stop offset="0.56" stop-color="#FEC485"/>
<stop offset="0.76" stop-color="#FED185"/>
<stop offset="0.96" stop-color="#FED585"/>
</linearGradient>
<linearGradient id="paint41_linear_37_141" x1="299.931" y1="203.524" x2="291.888" y2="180.816" gradientUnits="userSpaceOnUse">
<stop stop-color="#C5205C"/>
<stop offset="0.15" stop-color="#D32960"/>
<stop offset="0.45" stop-color="#E93867"/>
<stop offset="0.74" stop-color="#F6416B"/>
<stop offset="1" stop-color="#FB446C"/>
</linearGradient>
<linearGradient id="paint42_linear_37_141" x1="432.823" y1="236.91" x2="435.837" y2="295.702" gradientUnits="userSpaceOnUse">
<stop offset="0.27" stop-color="#4A1C40"/>
<stop offset="0.99" stop-color="#54254F"/>
<stop offset="1" stop-color="#54254F"/>
</linearGradient>
<linearGradient id="paint43_linear_37_141" x1="2238.15" y1="1722.16" x2="2179.97" y2="1622.45" gradientUnits="userSpaceOnUse">
<stop offset="0.27" stop-color="#4A1C40"/>
<stop offset="0.99" stop-color="#54254F"/>
<stop offset="1" stop-color="#54254F"/>
</linearGradient>
<linearGradient id="paint44_linear_37_141" x1="452.215" y1="232.493" x2="426.042" y2="190.518" gradientUnits="userSpaceOnUse">
<stop stop-color="#FF7A83"/>
<stop offset="0.09" stop-color="#FF8883"/>
<stop offset="0.33" stop-color="#FEA984"/>
<stop offset="0.56" stop-color="#FEC185"/>
<stop offset="0.78" stop-color="#FED085"/>
<stop offset="0.96" stop-color="#FED585"/>
</linearGradient>
<linearGradient id="paint45_linear_37_141" x1="4482.64" y1="2342.36" x2="4409.38" y2="2208.07" gradientUnits="userSpaceOnUse">
<stop offset="0.27" stop-color="#4A1C40"/>
<stop offset="0.99" stop-color="#54254F"/>
<stop offset="1" stop-color="#54254F"/>
</linearGradient>
<clipPath id="clip0_37_141">
<rect width="685" height="437" fill="white"/>
</clipPath>
</defs>
</svg>
