<svg width="79" height="73" viewBox="0 0 79 73" fill="none" xmlns="http://www.w3.org/2000/svg">
<path d="M64.9329 16.4901C62.5166 10.9865 58.3466 6.42003 53.0618 3.49046C47.7769 0.560896 41.6688 -0.57018 35.6734 0.270557C29.6781 1.11129 24.1262 3.87747 19.8685 8.14519C15.6108 12.4129 12.8822 17.9468 12.1008 23.8987C8.6502 24.7257 5.58052 26.6793 3.38564 29.4451C1.19075 32.211 -0.00171275 35.6283 7.85971e-05 39.1473C-0.00698211 41.3676 0.461754 43.5642 1.37526 45.5914C2.28877 47.6188 3.62622 49.4306 5.2991 50.9071C5.6841 51.2737 6.13998 51.5592 6.63927 51.7464C7.13856 51.9337 7.67093 52.0187 8.20428 51.9966C8.73763 51.9744 9.26094 51.8454 9.74265 51.6173C10.2244 51.3893 10.6545 51.0669 11.0072 50.6697C11.3598 50.2724 11.6277 49.8085 11.7946 49.3059C11.9616 48.8033 12.0241 48.2724 11.9785 47.7451C11.9329 47.2179 11.7801 46.7053 11.5292 46.2382C11.2784 45.7711 10.9348 45.3592 10.519 45.0272C9.68979 44.2854 9.02847 43.3779 8.57861 42.3644C8.12875 41.351 7.90056 40.2545 7.90907 39.1473C7.90907 37.0681 8.74233 35.0739 10.2256 33.6037C11.7088 32.1334 13.7205 31.3074 15.8181 31.3074C16.8669 31.3074 17.8727 30.8944 18.6143 30.1593C19.3559 29.4242 19.7726 28.4271 19.7726 27.3875C19.7827 22.7513 21.4504 18.2687 24.4795 14.7362C27.5085 11.2037 31.7028 8.8499 36.3172 8.09305C40.9315 7.3362 45.6671 8.22528 49.6826 10.6023C53.6982 12.9794 56.7337 16.6905 58.2498 21.0764C58.4758 21.75 58.8822 22.3501 59.4254 22.8127C59.9687 23.2752 60.6284 23.5829 61.3343 23.7027C64.0794 24.1721 66.5703 25.5841 68.3706 27.6912C70.1709 29.7983 71.1658 32.4661 71.181 35.2274C71.2414 38.1136 70.1957 40.9152 68.2547 43.0673C67.6233 43.8466 67.3161 44.8355 67.3959 45.8319C67.4757 46.8282 67.9364 47.7567 68.6838 48.4276C69.4313 49.0984 70.409 49.4609 71.4171 49.4409C72.4252 49.4209 73.3875 49.0199 74.1073 48.32C76.2855 45.8526 77.8044 42.883 78.525 39.6831C79.2456 36.4832 79.1449 33.1552 78.2321 30.0038C77.3193 26.8524 75.6235 23.9784 73.3001 21.6449C70.9767 19.3114 68.0998 17.5929 64.9329 16.6469V16.4901Z" fill="#9CE7FC"/>
<path d="M37.5 70C37.5 71.3807 38.6193 72.5 40 72.5C41.3807 72.5 42.5 71.3807 42.5 70L37.5 70ZM41.7678 32.2322C40.7915 31.2559 39.2085 31.2559 38.2322 32.2322L22.3223 48.1421C21.346 49.1184 21.346 50.7014 22.3223 51.6777C23.2986 52.654 24.8816 52.654 25.8579 51.6777L40 37.5355L54.1421 51.6777C55.1184 52.654 56.7014 52.654 57.6777 51.6777C58.654 50.7014 58.654 49.1184 57.6777 48.1421L41.7678 32.2322ZM42.5 70L42.5 34L37.5 34L37.5 70L42.5 70Z" fill="#2EBEEA"/>
</svg>
