<svg width="282" height="84" viewBox="0 0 282 84" fill="none" xmlns="http://www.w3.org/2000/svg">
<g clip-path="url(#clip0_37_85)">
<path d="M32.6739 84L0 65.0293V27.0879L32.6739 46.0586V84ZM2.24815 63.7252L30.4257 80.0816V47.3658L2.24815 31.0064V63.7252Z" fill="#4A7DA3"/>
<path d="M40.5636 84V46.0586L73.2375 27.0879V65.0293L40.5636 84ZM42.8148 47.3658V80.0816L70.9924 63.7221V31.0064L42.8148 47.3658Z" fill="#4A7DA3"/>
<path d="M36.6188 39.1846L3.93884 20.2139L36.6188 1.24623L69.2926 20.2139L36.6188 39.1846ZM8.4412 20.2139L36.6188 36.5733L64.7964 20.2139L36.6188 3.85752L8.4412 20.2139Z" fill="#4A7DA3"/>
<path d="M36.6188 80.4015L5.07202 62.0859V25.4517L36.6188 7.13306L68.1716 25.4517V62.0859L36.6188 80.4015ZM7.32017 60.7787L36.6188 77.7902L65.9174 60.7787V26.7558L36.6188 9.75044L7.32017 26.7558V60.7787Z" fill="#4A7DA3"/>
<path d="M37.7428 79.0974H35.4946V44.4193L5.63245 27.0818L6.75652 25.1226L37.7428 43.1152V79.0974Z" fill="#4A7DA3"/>
<path d="M66.4792 25.1247L36.0548 42.7897L37.1789 44.7477L67.6033 27.0827L66.4792 25.1247Z" fill="#4A7DA3"/>
<path d="M92.2285 45.0958C90.4106 45.0958 88.9967 44.7606 87.9867 44.0902C86.9746 43.4146 86.2338 42.3996 85.8961 41.2261C85.4842 39.7805 85.2901 38.2809 85.3205 36.7774V20.0676H89.6834V37.2832C89.681 38.0122 89.7316 38.7403 89.8349 39.4618C89.9043 40.0693 90.1522 40.6422 90.5469 41.1072C90.7651 41.3288 91.0283 41.5005 91.3186 41.6104C91.6088 41.7203 91.9192 41.7659 92.2285 41.744C93.0163 41.744 93.5859 41.5338 93.9404 41.1194C94.3184 40.6457 94.5595 40.0764 94.6372 39.474C94.7518 38.7536 94.8076 38.025 94.8039 37.2954V20.0676H99.1366V36.7652C99.1669 38.2687 98.9728 39.7683 98.5609 41.2139C98.2255 42.3843 97.4906 43.3984 96.4854 44.0781C95.4856 44.7565 94.0666 45.0958 92.2285 45.0958Z" fill="#4C4C4B"/>
<path d="M102.651 44.7484V20.0676H105.772L111.741 34.1448V20.0676H115.437V44.7484H112.468L106.469 30.0009V44.7484H102.651Z" fill="#4C4C4B"/>
<path d="M119.285 44.7484V20.0676H123.709V44.7484H119.285Z" fill="#4C4C4B"/>
<path d="M129.95 44.7484V23.3889H126.042V20.0676H138.282V23.3889H134.434V44.7484H129.95Z" fill="#4C4C4B"/>
<path d="M140.524 44.7484V20.0676H150.826V23.2365H145.008V30.336H149.584V33.4745H145.008V41.6405H150.886V44.7484H140.524Z" fill="#4C4C4B"/>
<path d="M153.492 44.7484V20.0676H159.279C161.279 20.0676 162.839 20.3418 163.96 20.8903C165.046 21.4007 165.9 22.3037 166.354 23.4193C166.826 24.5569 167.064 25.9991 167.066 27.7461V36.7652C167.109 38.285 166.868 39.7993 166.354 41.2291C165.916 42.3746 165.075 43.3181 163.99 43.88C162.888 44.4589 161.373 44.7484 159.446 44.7484H153.492ZM157.976 41.61H159.34C160.37 41.61 161.107 41.4272 161.551 41.0615C162.017 40.6527 162.31 40.0804 162.369 39.4618C162.479 38.6082 162.53 37.7479 162.521 36.8871V27.4414C162.538 26.6336 162.467 25.8264 162.309 25.0342C162.259 24.7632 162.155 24.5049 162.004 24.2747C161.853 24.0444 161.658 23.8469 161.43 23.6936C160.985 23.4071 160.267 23.267 159.279 23.267H157.976V41.61Z" fill="#4C4C4B"/>
<path d="M177.852 44.7484V20.0676H182.276V44.7484H177.852Z" fill="#4C4C4B"/>
<path d="M188.517 44.7484V23.3889H184.609V20.0676H196.849V23.3889H193.001V44.7484H188.517Z" fill="#4C4C4B"/>
<path d="M213.059 45.0958C211.259 45.0958 209.845 44.7403 208.817 44.0293C207.808 43.3233 207.062 42.2995 206.696 41.1194C206.268 39.7393 206.064 38.299 206.09 36.8536V28.0508C206.06 26.5652 206.265 25.0842 206.696 23.6631C207.048 22.4883 207.799 21.4749 208.817 20.7989C209.827 20.1286 211.241 19.7934 213.059 19.7934C214.756 19.7934 216.084 20.0828 217.043 20.6618C217.992 21.2298 218.715 22.112 219.088 23.1573C219.513 24.3597 219.718 25.6293 219.694 26.9051V28.9771H215.392V26.8442C215.395 26.2129 215.359 25.582 215.286 24.955C215.243 24.4528 215.041 23.9777 214.71 23.5991C214.395 23.2639 213.855 23.0963 213.089 23.0963C212.324 23.0963 211.763 23.2741 211.408 23.6296C211.035 24.0217 210.796 24.5234 210.726 25.0617C210.618 25.7315 210.568 26.4094 210.574 27.0879V37.8134C210.559 38.5556 210.63 39.2971 210.787 40.0225C210.887 40.5356 211.159 40.9983 211.559 41.3327C212.001 41.6457 212.534 41.8012 213.074 41.7745C213.819 41.7745 214.35 41.5947 214.665 41.2413C215.002 40.84 215.213 40.3468 215.271 39.8244C215.355 39.1677 215.395 38.506 215.392 37.8439V35.6196H219.694V37.6001C219.715 38.9181 219.521 40.2305 219.119 41.4851C218.764 42.5722 218.054 43.5066 217.104 44.136C216.144 44.7758 214.796 45.0958 213.059 45.0958Z" fill="#4C4C4B"/>
<path d="M222.812 44.7484V20.0676H227.299V41.6405H233.235V44.7484H222.812Z" fill="#4C4C4B"/>
<path d="M242.051 45.0958C240.234 45.0958 238.82 44.7606 237.81 44.0902C236.798 43.4146 236.057 42.3996 235.719 41.2261C235.309 39.7802 235.115 38.2808 235.143 36.7774V20.0676H239.506V37.2832C239.504 38.0122 239.555 38.7403 239.658 39.4618C239.728 40.069 239.976 40.6415 240.37 41.1072C240.59 41.3262 240.853 41.4952 241.143 41.6029C241.433 41.7107 241.743 41.7547 242.051 41.7319C242.839 41.7319 243.412 41.5216 243.763 41.1072C244.142 40.6341 244.384 40.0646 244.46 39.4618C244.575 38.7414 244.631 38.0128 244.627 37.2832V20.0676H248.96V36.7652C248.99 38.2687 248.796 39.7683 248.384 41.2139C248.05 42.385 247.315 43.3996 246.308 44.0781C245.311 44.7565 243.892 45.0958 242.051 45.0958Z" fill="#4C4C4B"/>
<path d="M252.474 44.7484V20.0676H258.504C259.497 20.0568 260.488 20.159 261.458 20.3723C262.278 20.5476 263.053 20.8955 263.73 21.3931C264.385 21.8925 264.893 22.5612 265.2 23.3279C265.574 24.3088 265.749 25.3553 265.715 26.4054C265.735 27.2765 265.596 28.144 265.306 28.9649C265.067 29.6278 264.654 30.2126 264.109 30.656C263.531 31.0939 262.854 31.3817 262.139 31.4939C263.017 31.6164 263.848 31.9684 264.548 32.5147C265.196 33.048 265.689 33.7483 265.972 34.5409C266.308 35.5097 266.468 36.5317 266.442 37.5575C266.46 38.6153 266.311 39.6693 266.002 40.6806C265.746 41.5227 265.3 42.2942 264.7 42.9354C264.098 43.5508 263.361 44.0152 262.548 44.2914C261.576 44.614 260.557 44.7685 259.534 44.7484H252.474ZM256.958 30.1654H258.473C259.182 30.2019 259.888 30.066 260.534 29.7693C261.015 29.5098 261.379 29.0731 261.549 28.5505C261.764 27.8818 261.867 27.1814 261.852 26.4785C261.892 25.7754 261.74 25.0746 261.412 24.4523C261.115 23.9683 260.642 23.6188 260.094 23.4772C259.363 23.2861 258.608 23.1989 257.852 23.2182H256.973L256.958 30.1654ZM256.958 41.5917H258.655C260.008 41.5917 260.927 41.2616 261.412 40.6014C261.897 39.9412 262.139 38.9205 262.139 37.5392C262.168 36.7123 262.05 35.8868 261.791 35.1016C261.588 34.5139 261.178 34.021 260.64 33.7152C259.983 33.3838 259.253 33.2265 258.519 33.2581H256.973L256.958 41.5917Z" fill="#4C4C4B"/>
<path d="M275.531 45.0958C274.244 45.1405 272.969 44.8408 271.835 44.2274C270.838 43.6395 270.053 42.7486 269.593 41.6831C269.049 40.3797 268.761 38.983 268.744 37.5696L272.592 36.8079C272.62 37.6608 272.737 38.5085 272.941 39.3369C273.081 39.9685 273.384 40.5518 273.819 41.028C274.026 41.228 274.271 41.3837 274.539 41.4859C274.807 41.588 275.093 41.6344 275.38 41.6222C276.107 41.6222 276.622 41.4038 276.925 40.9671C277.244 40.4742 277.403 39.8939 277.379 39.3064C277.419 38.368 277.165 37.4407 276.652 36.6555C276.096 35.8853 275.444 35.1891 274.713 34.5836L271.623 31.8413C270.79 31.1315 270.088 30.2807 269.547 29.3275C269.001 28.2705 268.735 27.09 268.775 25.8996C268.775 23.9495 269.34 22.4463 270.471 21.39C271.603 20.3337 273.149 19.8056 275.11 19.8056C276.097 19.773 277.078 19.9549 277.988 20.3388C278.712 20.6636 279.339 21.173 279.806 21.8166C280.27 22.4603 280.613 23.1829 280.821 23.9495C281.05 24.7806 281.192 25.6332 281.246 26.4938L277.428 27.1641C277.399 26.4675 277.313 25.7745 277.17 25.0921C277.077 24.5581 276.836 24.0615 276.474 23.66C276.277 23.4766 276.045 23.3358 275.793 23.2467C275.54 23.1576 275.271 23.1219 275.004 23.142C274.716 23.1239 274.428 23.1737 274.162 23.2874C273.896 23.4012 273.661 23.5757 273.474 23.7971C273.112 24.2608 272.924 24.8381 272.944 25.4273C272.915 26.1484 273.094 26.8624 273.459 27.484C273.876 28.1029 274.376 28.6615 274.943 29.1447L278.004 31.8565C279.019 32.7132 279.893 33.7262 280.594 34.8578C281.341 36.1122 281.714 37.5556 281.67 39.017C281.69 40.1131 281.424 41.1954 280.897 42.1554C280.391 43.0536 279.646 43.7922 278.746 44.2883C277.762 44.8328 276.654 45.111 275.531 45.0958Z" fill="#4C4C4B"/>
<path d="M84.5781 63.1859V50.8455H88.1836C88.8083 50.8186 89.4288 50.9606 89.9803 51.2568C90.4393 51.5328 90.7958 51.9523 90.9953 52.4513C91.2256 53.0567 91.3358 53.7016 91.3195 54.3495C91.3491 55.0209 91.2084 55.6889 90.9105 56.2905C90.6567 56.7648 90.2555 57.1425 89.7683 57.3661C89.2198 57.6005 88.6279 57.7148 88.0321 57.7013H86.8202V63.1859H84.5781ZM86.8202 56.1168H87.6686C87.994 56.1319 88.3185 56.0715 88.6169 55.9401C88.7288 55.8826 88.828 55.8031 88.9087 55.7063C88.9894 55.6094 89.0499 55.4972 89.0865 55.3764C89.1819 55.0377 89.2248 54.6862 89.2138 54.3343C89.221 53.9682 89.1885 53.6025 89.1168 53.2435C89.0912 53.1182 89.0403 52.9995 88.9674 52.8947C88.8944 52.7899 88.8009 52.7012 88.6927 52.6341C88.3743 52.4795 88.0213 52.4112 87.6686 52.436H86.8202V56.1168Z" fill="#4C4C4B"/>
<path d="M93.7131 63.1859V50.8455H96.6521C97.3638 50.8309 98.0732 50.9338 98.7518 51.1502C99.2905 51.325 99.7515 51.684 100.055 52.1648C100.38 52.7606 100.535 53.4359 100.5 54.1149C100.505 54.5656 100.459 55.0153 100.364 55.4556C100.286 55.8227 100.129 56.1681 99.9031 56.4672C99.6644 56.7626 99.3502 56.987 98.9942 57.1162L100.706 63.2103H98.47L96.9854 57.558H95.9552V63.2103L93.7131 63.1859ZM95.9552 56.1168H96.6521C97.0084 56.1321 97.3636 56.0665 97.6913 55.9248C97.9465 55.801 98.1441 55.5826 98.2428 55.3154C98.3651 54.9717 98.4217 54.6078 98.4094 54.2429C98.4444 53.7535 98.3257 53.2653 98.0701 52.8474C97.8428 52.5427 97.4095 52.3842 96.7733 52.3842H95.9552V56.1168Z" fill="#4C4C4B"/>
<path d="M106.696 63.3534C105.973 63.3884 105.254 63.2196 104.621 62.8659C104.104 62.5391 103.714 62.0446 103.515 61.4643C103.279 60.7682 103.167 60.0361 103.181 59.3009V54.6847C103.166 53.9595 103.279 53.2373 103.515 52.5518C103.716 51.983 104.107 51.5018 104.621 51.1898C105.256 50.8438 105.974 50.6804 106.696 50.7175C107.426 50.6788 108.152 50.8421 108.796 51.1898C109.307 51.5053 109.696 51.9853 109.902 52.5518C110.143 53.2361 110.258 53.9589 110.241 54.6847V59.3162C110.256 60.0419 110.141 60.7644 109.902 61.4491C109.697 62.0261 109.308 62.5189 108.796 62.8507C108.157 63.215 107.429 63.3894 106.696 63.3534ZM106.696 61.6928C106.992 61.7162 107.287 61.6295 107.523 61.4491C107.708 61.2683 107.832 61.0339 107.878 60.7787C107.94 60.473 107.971 60.1615 107.969 59.8494V54.1667C107.972 53.8545 107.942 53.5429 107.878 53.2374C107.831 52.9886 107.707 52.7612 107.523 52.5884C107.285 52.4112 106.991 52.3277 106.696 52.3537C106.409 52.3321 106.124 52.4154 105.893 52.5884C105.705 52.7588 105.577 52.9868 105.53 53.2374C105.466 53.5429 105.435 53.8545 105.439 54.1667V59.8494C105.436 60.1612 105.465 60.4726 105.524 60.7787C105.564 61.0357 105.689 61.2716 105.878 61.4491C106.112 61.6274 106.403 61.714 106.696 61.6928Z" fill="#4C4C4B"/>
<path d="M116.18 63.3534C115.5 63.3891 114.827 63.2078 114.256 62.8355C113.766 62.4677 113.407 61.9519 113.231 61.3638C113.014 60.6358 112.912 59.878 112.928 59.1181V54.9742C112.913 54.2013 113.015 53.4306 113.231 52.6889C113.405 52.0882 113.783 51.5676 114.298 51.2172C114.94 50.8423 115.678 50.6654 116.419 50.7084C117.111 50.6741 117.8 50.8211 118.419 51.1349C118.903 51.4062 119.281 51.8364 119.488 52.3537C119.719 52.9749 119.829 53.6348 119.812 54.2977V54.9376H117.691V54.2368C117.696 53.8947 117.669 53.553 117.61 53.216C117.573 52.9679 117.455 52.7393 117.273 52.567C117.038 52.3995 116.751 52.3217 116.464 52.3476C116.308 52.335 116.151 52.3556 116.003 52.4081C115.856 52.4606 115.72 52.5438 115.607 52.6523C115.422 52.8666 115.306 53.1322 115.274 53.4141C115.227 53.7574 115.204 54.1036 115.207 54.4501V59.63C115.202 60.0035 115.238 60.3764 115.313 60.7422C115.363 61.0193 115.501 61.2727 115.707 61.4643C115.94 61.6458 116.231 61.7358 116.525 61.7172C116.828 61.7386 117.127 61.6401 117.358 61.443C117.564 61.2341 117.704 60.9693 117.761 60.6812C117.842 60.3008 117.879 59.9123 117.873 59.5234V58.3655H116.528V56.9486H119.861V63.2102H118.422L118.255 61.9914C118.103 62.3843 117.849 62.7286 117.519 62.9878C117.126 63.2573 116.654 63.386 116.18 63.3534Z" fill="#4C4C4B"/>
<path d="M122.785 63.1859V50.8455H125.739C126.449 50.8306 127.158 50.9335 127.835 51.1502C128.375 51.3229 128.837 51.6824 129.138 52.1648C129.467 52.7596 129.622 53.4354 129.587 54.1149C129.591 54.5655 129.546 55.0153 129.45 55.4556C129.373 55.8234 129.214 56.169 128.987 56.4672C128.749 56.7637 128.434 56.9883 128.078 57.1162L129.79 63.2102H127.557L126.072 57.558H125.042V63.2102L122.785 63.1859ZM125.027 56.1168H125.739C126.094 56.1325 126.448 56.0668 126.775 55.9248C127.032 55.8021 127.231 55.5835 127.329 55.3154C127.452 54.9717 127.508 54.6078 127.496 54.2429C127.53 53.7531 127.41 53.265 127.154 52.8474C126.926 52.5427 126.496 52.3842 125.86 52.3842H125.042L125.027 56.1168Z" fill="#4C4C4B"/>
<path d="M131.874 63.1859L134.328 50.8455H136.722L139.176 63.1859H137.101L136.616 60.3308H134.495L133.995 63.1798L131.874 63.1859ZM134.707 58.9048H136.373L135.54 53.7249L134.707 58.9048Z" fill="#4C4C4B"/>
<path d="M141.585 63.1859L141.797 50.8455H144.115L145.857 59.3771L147.675 50.8455H149.917L150.144 63.1859H148.478L148.296 54.6085L146.554 63.1859H145.205L143.433 54.5781L143.266 63.1859H141.585Z" fill="#4C4C4B"/>
<path d="M153.144 63.1859L153.356 50.8455H155.674L157.416 59.3771L159.234 50.8455H161.491L161.718 63.1859H160.052L159.87 54.6085L158.128 63.1859H156.764L154.992 54.5781L154.825 63.1859H153.144Z" fill="#4C4C4B"/>
<path d="M164.703 63.1859V50.8455H166.914V63.1859H164.703Z" fill="#4C4C4B"/>
<path d="M170.02 63.1859V50.8455H171.58L174.565 57.8841V50.8455H176.413V63.1859H174.928L171.929 55.8121V63.1859H170.02Z" fill="#4C4C4B"/>
<path d="M182.563 63.3535C181.884 63.3896 181.21 63.2082 180.639 62.8355C180.15 62.4677 179.791 61.9519 179.615 61.3638C179.398 60.6358 179.296 59.878 179.312 59.1181V54.9742C179.297 54.2013 179.399 53.4306 179.615 52.6889C179.788 52.0877 180.166 51.5667 180.682 51.2172C181.324 50.8423 182.062 50.6654 182.803 50.7084C183.495 50.6744 184.184 50.8213 184.802 51.1349C185.286 51.4067 185.662 51.8369 185.869 52.3537C186.102 52.9743 186.213 53.6345 186.196 54.2977V54.9376H184.075V54.2368C184.081 53.8946 184.052 53.5526 183.99 53.216C183.955 52.9682 183.838 52.7396 183.657 52.567C183.422 52.3995 183.135 52.3217 182.848 52.3476C182.692 52.335 182.535 52.3556 182.387 52.4081C182.239 52.4606 182.104 52.5438 181.991 52.6523C181.805 52.8658 181.688 53.1318 181.658 53.4141C181.611 53.7574 181.588 54.1036 181.591 54.4501V59.63C181.586 60.0035 181.622 60.3764 181.697 60.7422C181.746 61.0198 181.884 61.2735 182.091 61.4643C182.324 61.6459 182.615 61.7358 182.909 61.7172C183.211 61.7379 183.51 61.6396 183.742 61.443C183.947 61.2339 184.086 60.969 184.142 60.6812C184.224 60.3009 184.262 59.9125 184.257 59.5234V58.3655H182.912V56.9486H186.245V63.2102H184.821L184.654 61.9914C184.503 62.3843 184.248 62.7286 183.918 62.9878C183.521 63.2606 183.043 63.3895 182.563 63.3535Z" fill="#4C4C4B"/>
<path d="M196.652 63.3534C196.137 63.3652 195.627 63.2412 195.174 62.9939C194.76 62.7613 194.422 62.4117 194.204 61.9884C193.967 61.5168 193.85 60.9932 193.865 60.4649C193.847 59.7509 194.022 59.0456 194.371 58.4234C194.718 57.8341 195.144 57.2958 195.637 56.8237L195.031 55.7176C194.832 55.3553 194.664 54.976 194.531 54.5841C194.401 54.207 194.334 53.8104 194.334 53.411C194.32 52.9259 194.424 52.4446 194.637 52.0094C194.844 51.6071 195.159 51.2713 195.546 51.0405C195.98 50.793 196.472 50.6697 196.97 50.684C197.44 50.6729 197.905 50.7775 198.325 50.9887C198.707 51.1847 199.03 51.4817 199.258 51.8479C199.495 52.2404 199.616 52.6929 199.606 53.1521C199.61 53.6813 199.487 54.2036 199.249 54.6756C199.018 55.1334 198.731 55.5603 198.394 55.9462C198.061 56.3281 197.738 56.6815 197.425 57.0065L199.061 59.825C199.175 59.6029 199.262 59.3675 199.318 59.1242C199.387 58.8378 199.445 58.5331 199.491 58.2101C199.537 57.8841 199.57 57.6007 199.591 57.3112H201.227C201.229 57.7874 201.181 58.2624 201.082 58.7281C200.992 59.1525 200.863 59.5677 200.697 59.9682C200.542 60.3324 200.365 60.6865 200.167 61.0286C200.302 61.1804 200.463 61.3064 200.642 61.4003C200.837 61.5058 201.052 61.5662 201.273 61.577V63.3291L201.097 63.3504H200.939C200.676 63.3409 200.418 63.2754 200.182 63.1584C199.952 63.0436 199.738 62.898 199.546 62.7258C199.364 62.5631 199.192 62.3902 199.031 62.2078C198.76 62.5487 198.419 62.8263 198.031 63.0213C197.603 63.2386 197.131 63.3523 196.652 63.3534ZM196.698 61.8299C196.977 61.8364 197.252 61.7567 197.485 61.6014C197.702 61.4522 197.895 61.2726 198.061 61.0682L196.38 58.2192C196.152 58.5434 195.973 58.8997 195.849 59.2765C195.728 59.6483 195.667 60.0371 195.667 60.4283C195.665 60.6631 195.701 60.8968 195.774 61.12C195.832 61.3217 195.948 61.5017 196.107 61.638C196.274 61.7714 196.484 61.8396 196.698 61.8299ZM196.819 55.9187C197.007 55.6638 197.174 55.3938 197.319 55.1113C197.479 54.7937 197.611 54.4623 197.713 54.121C197.809 53.7997 197.86 53.4663 197.864 53.1307C197.87 53.0116 197.852 52.8925 197.81 52.7808C197.768 52.6692 197.704 52.5673 197.622 52.4817C197.541 52.4038 197.447 52.3429 197.342 52.3026C197.238 52.2623 197.127 52.2434 197.016 52.2471C196.889 52.2399 196.762 52.2679 196.65 52.3281C196.538 52.3883 196.444 52.4783 196.38 52.5884C196.231 52.8394 196.157 53.1282 196.167 53.4202C196.168 53.8626 196.239 54.3019 196.38 54.7213C196.519 55.1509 196.667 55.5531 196.819 55.9187Z" fill="#4C4C4B"/>
<path d="M209.06 63.1859V50.8455H211.953C212.753 50.8082 213.552 50.9486 214.292 51.2568C214.841 51.5085 215.274 51.9605 215.504 52.5213C215.763 53.2119 215.884 53.947 215.862 54.6847V59.1943C215.883 59.9538 215.762 60.7105 215.504 61.4247C215.286 61.998 214.865 62.4701 214.322 62.7501C213.613 63.073 212.837 63.2223 212.059 63.1859H209.06ZM211.302 61.6167H211.983C212.372 61.6508 212.761 61.5543 213.089 61.3424C213.322 61.1376 213.469 60.8509 213.498 60.5411C213.552 60.1147 213.578 59.6851 213.574 59.2552V54.5415C213.583 54.1376 213.547 53.734 213.468 53.3379C213.443 53.2024 213.391 53.0733 213.316 52.9582C213.24 52.8431 213.143 52.7443 213.029 52.6676C212.696 52.5007 212.324 52.427 211.953 52.4543H211.302V61.6167Z" fill="#4C4C4B"/>
<path d="M218.709 63.1859V50.8455H223.86V52.4299H220.952V55.9797H223.239V57.5489H220.952V61.6319H223.906V63.1859H218.709Z" fill="#4C4C4B"/>
<path d="M229.496 63.3535C228.852 63.3754 228.214 63.225 227.647 62.9177C227.149 62.6254 226.756 62.1801 226.526 61.6471C226.254 60.9958 226.11 60.2972 226.102 59.5904L228.026 59.2095C228.037 59.6361 228.095 60.0602 228.199 60.474C228.269 60.7895 228.42 61.0807 228.638 61.3181C228.741 61.4198 228.863 61.4992 228.998 61.5516C229.132 61.604 229.276 61.6282 229.42 61.6228C229.566 61.6376 229.713 61.6153 229.848 61.5577C229.983 61.5002 230.102 61.4094 230.193 61.2937C230.352 61.048 230.432 60.7582 230.42 60.4649C230.44 59.9957 230.312 59.5321 230.056 59.1394C229.778 58.7543 229.452 58.4062 229.087 58.1035L227.541 56.7323C227.124 56.3778 226.772 55.9517 226.502 55.4739C226.23 54.9459 226.097 54.3561 226.117 53.7615C226.117 52.7864 226.4 52.0348 226.966 51.5067C227.607 50.9495 228.438 50.6654 229.284 50.7145C229.777 50.6986 230.267 50.789 230.723 50.9795C231.084 51.1434 231.397 51.3985 231.632 51.72C231.864 52.0441 232.036 52.4074 232.141 52.7925C232.253 53.2089 232.324 53.6356 232.353 54.0662L230.444 54.4013C230.428 54.0531 230.385 53.7066 230.314 53.3654C230.267 53.0985 230.146 52.8503 229.965 52.6493C229.867 52.5578 229.752 52.4875 229.626 52.443C229.499 52.3984 229.365 52.3805 229.232 52.3903C229.088 52.3815 228.944 52.4064 228.811 52.463C228.678 52.5195 228.56 52.6062 228.466 52.7163C228.285 52.9491 228.192 53.2381 228.202 53.5329C228.187 53.8931 228.277 54.2498 228.46 54.5598C228.666 54.8711 228.916 55.1512 229.202 55.3916L230.717 56.7475C231.223 57.1765 231.659 57.6823 232.01 58.2467C232.391 58.8734 232.586 59.5965 232.571 60.3308C232.581 60.879 232.447 61.4202 232.183 61.9C231.931 62.3515 231.559 62.7231 231.108 62.9726C230.612 63.2376 230.057 63.3688 229.496 63.3535Z" fill="#4C4C4B"/>
<path d="M235.041 63.1859V50.8455H237.252V63.1859H235.041Z" fill="#4C4C4B"/>
<path d="M243.433 63.3535C242.753 63.3892 242.078 63.2079 241.506 62.8355C241.018 62.4674 240.66 61.9516 240.485 61.3638C240.268 60.6358 240.166 59.878 240.182 59.1181V54.9742C240.166 54.2013 240.269 53.4306 240.485 52.6889C240.658 52.0877 241.035 51.5667 241.552 51.2172C242.194 50.842 242.931 50.665 243.673 50.7084C244.364 50.6743 245.052 50.8213 245.669 51.1349C246.154 51.4062 246.531 51.8364 246.739 52.3537C246.972 52.9743 247.083 53.6345 247.066 54.2977V54.9376H244.927V54.2368C244.931 53.8947 244.904 53.553 244.845 53.216C244.81 52.9682 244.692 52.7396 244.512 52.567C244.276 52.3988 243.988 52.321 243.7 52.3477C243.544 52.3347 243.387 52.3551 243.24 52.4076C243.093 52.4602 242.958 52.5436 242.845 52.6524C242.659 52.8658 242.543 53.1318 242.512 53.4141C242.465 53.7574 242.443 54.1036 242.445 54.4501V59.63C242.44 60.0034 242.474 60.3763 242.548 60.7422C242.6 61.0189 242.738 61.2719 242.942 61.4643C243.175 61.6459 243.466 61.7358 243.76 61.7172C244.063 61.7389 244.362 61.6404 244.594 61.443C244.8 61.2349 244.94 60.9697 244.997 60.6812C245.078 60.3009 245.117 59.9125 245.112 59.5234V58.3655H243.791V56.9486H247.124V63.2102H245.684L245.518 61.9914C245.366 62.3835 245.113 62.7276 244.784 62.9878C244.388 63.2599 243.912 63.3888 243.433 63.3535Z" fill="#4C4C4B"/>
<path d="M250.035 63.1859V50.8455H251.599L254.58 57.8841V50.8455H256.431V63.1859H254.947L251.944 55.8121V63.1859H250.035Z" fill="#4C4C4B"/>
<path d="M259.567 63.1859V50.8455H261.779V63.1859H259.567Z" fill="#4C4C4B"/>
<path d="M264.881 63.1859V50.8455H266.442L269.426 57.8841V50.8455H271.274V63.1859H269.79L266.79 55.8121V63.1859H264.881Z" fill="#4C4C4B"/>
<path d="M277.425 63.3535C276.746 63.3887 276.072 63.2074 275.501 62.8355C275.013 62.4674 274.655 61.9516 274.48 61.3638C274.263 60.6358 274.16 59.878 274.177 59.1181V54.9742C274.163 54.2014 274.265 53.4309 274.48 52.6889C274.655 52.088 275.033 51.5675 275.55 51.2172C276.192 50.8418 276.929 50.6649 277.67 50.7084C278.363 50.6741 279.052 50.8211 279.67 51.1349C280.155 51.4062 280.532 51.8364 280.74 52.3538C280.972 52.9745 281.082 53.6347 281.064 54.2977V54.9376H278.928V54.2368C278.932 53.8947 278.905 53.553 278.846 53.2161C278.811 52.9682 278.693 52.7396 278.513 52.567C278.277 52.3988 277.989 52.321 277.701 52.3477C277.545 52.3347 277.388 52.3551 277.241 52.4076C277.094 52.4602 276.959 52.5436 276.846 52.6524C276.66 52.8659 276.544 53.1318 276.513 53.4141C276.465 53.7573 276.442 54.1035 276.443 54.4501V59.63C276.439 60.0035 276.474 60.3764 276.549 60.7422C276.601 61.0189 276.739 61.2719 276.943 61.4643C277.176 61.6459 277.467 61.7358 277.761 61.7172C278.064 61.7386 278.363 61.6402 278.595 61.443C278.801 61.2349 278.941 60.9697 278.998 60.6812C279.078 60.3008 279.116 59.9123 279.11 59.5234V58.3655H277.792V56.9486H281.125V63.2102H279.655L279.488 61.9914C279.337 62.3835 279.084 62.7276 278.755 62.9878C278.365 63.2553 277.897 63.384 277.425 63.3535Z" fill="#4C4C4B"/>
</g>
<defs>
<clipPath id="clip0_37_85">
<rect width="282" height="84" fill="white"/>
</clipPath>
</defs>
</svg>
