<svg width="54" height="54" viewBox="0 0 54 54" fill="none" xmlns="http://www.w3.org/2000/svg">
<path d="M39.797 48.9243C38.7851 48.9241 37.8022 48.5862 37.0042 47.964L27.9361 40.9394L21.8563 47.6498C21.5887 47.9449 21.2476 48.1636 20.8678 48.2837C20.488 48.4038 20.0832 48.4209 19.6946 48.3333C19.3061 48.2457 18.9477 48.0566 18.6562 47.7852C18.3646 47.5137 18.1504 47.1698 18.0352 46.7885L13.4891 31.7548L5.33285 28.9182C4.45231 28.6114 3.68596 28.0439 3.13561 27.2912C2.58526 26.5385 2.27697 25.6361 2.25169 24.704C2.22641 23.7719 2.48535 22.8541 2.99409 22.0727C3.50284 21.2913 4.23731 20.6831 5.09993 20.3291L45.4198 4.04949C46.1891 3.73675 47.0288 3.63833 47.8496 3.76469C48.6704 3.89106 49.4416 4.23749 50.0813 4.76715C50.7209 5.29681 51.2051 5.9899 51.4823 6.77275C51.7595 7.55559 51.8194 8.39892 51.6556 9.21308L44.3145 45.2504C44.0971 46.288 43.5295 47.2193 42.707 47.8882C41.8845 48.5571 40.8571 48.9229 39.7969 48.9243H39.797Z" fill="#A2A1FF"/>
<path d="M20.1888 48.3884C19.706 48.3885 19.2359 48.2332 18.8482 47.9455C18.4604 47.6578 18.1755 47.253 18.0356 46.7909L13.1576 30.6827C13.0051 30.1808 13.033 29.6413 13.2365 29.1578C13.4399 28.6743 13.8061 28.2771 14.2716 28.0352L38.0482 15.6557C38.5248 15.407 39.0748 15.3372 39.5984 15.459C40.122 15.5808 40.5847 15.8861 40.9027 16.3196C41.2207 16.7531 41.3728 17.2861 41.3317 17.8222C41.2905 18.3582 41.0587 18.8618 40.6783 19.2417L24.7416 35.1784L22.3927 46.591C22.2923 47.0813 22.0312 47.5241 21.6507 47.8493C21.2702 48.1745 20.7921 48.3634 20.2921 48.3861C20.2569 48.3884 20.2218 48.3884 20.1888 48.3884Z" fill="#6563FF"/>
</svg>
