<svg width="46" height="46" viewBox="0 0 46 46" fill="none" xmlns="http://www.w3.org/2000/svg">
<path d="M23.0003 0.500366C10.6252 0.500366 0.500244 10.6254 0.500244 23.0004C0.500244 28.1754 2.30025 33.1254 5.67525 37.1754L1.17524 41.6754C0.275244 42.5754 0.275244 43.9254 1.17524 44.8254C1.62524 45.2754 2.07524 45.5004 2.75024 45.5004H23.0003C35.3753 45.5004 45.5003 35.3754 45.5003 23.0004C45.5003 10.6254 35.3753 0.500366 23.0003 0.500366ZM25.2503 29.7504C25.2503 31.1004 24.3503 32.0004 23.0003 32.0004C21.6503 32.0004 20.7502 31.1004 20.7502 29.7504V23.0004C20.7502 21.6504 21.6503 20.7504 23.0003 20.7504C24.3503 20.7504 25.2503 21.6504 25.2503 23.0004V29.7504ZM23.0003 18.5004C21.6503 18.5004 20.7502 17.6004 20.7502 16.2504C20.7502 14.9004 21.6503 14.0004 23.0003 14.0004C24.3503 14.0004 25.2503 14.9004 25.2503 16.2504C25.2503 17.6004 24.3503 18.5004 23.0003 18.5004Z" fill="#A5A6F6"/>
</svg>
