<svg width="54" height="54" viewBox="0 0 54 54" fill="none" xmlns="http://www.w3.org/2000/svg">
<path d="M41.945 18.4651C40.5703 15.3061 38.1976 12.685 35.1907 11.0035C32.1838 9.32195 28.7084 8.67272 25.2972 9.1553C21.886 9.63787 18.7271 11.2256 16.3046 13.6752C13.8821 16.1249 12.3296 19.3012 11.885 22.7176C9.92173 23.1923 8.17516 24.3136 6.92633 25.9011C5.67751 27.4887 4.99903 29.4502 5.00004 31.4701C4.99603 32.7445 5.26273 34.0053 5.78249 35.169C6.30225 36.3326 7.06322 37.3726 8.01504 38.2201C8.2341 38.4305 8.49348 38.5944 8.77756 38.7018C9.06165 38.8093 9.36455 38.8581 9.66801 38.8454C9.97148 38.8327 10.2692 38.7586 10.5433 38.6277C10.8174 38.4968 11.0621 38.3118 11.2628 38.0838C11.4634 37.8558 11.6158 37.5895 11.7108 37.301C11.8058 37.0125 11.8414 36.7078 11.8154 36.4052C11.7895 36.1025 11.7025 35.8083 11.5598 35.5402C11.4171 35.2721 11.2216 35.0356 10.985 34.8451C10.5132 34.4193 10.137 33.8984 9.881 33.3167C9.62504 32.735 9.49521 32.1056 9.50004 31.4701C9.50004 30.2766 9.97415 29.132 10.8181 28.2881C11.662 27.4442 12.8066 26.9701 14 26.9701C14.5968 26.9701 15.1691 26.733 15.591 26.3111C16.013 25.8891 16.25 25.3168 16.25 24.7201C16.2558 22.059 17.2047 19.486 18.9282 17.4584C20.6516 15.4308 23.0381 14.0797 25.6635 13.6453C28.2889 13.2109 30.9833 13.7212 33.2681 15.0856C35.5528 16.45 37.2799 18.5802 38.1425 21.0976C38.2712 21.4842 38.5024 21.8287 38.8114 22.0942C39.1205 22.3597 39.4959 22.5363 39.8975 22.6051C41.4594 22.8745 42.8767 23.6849 43.901 24.8944C44.9253 26.1039 45.4914 27.6352 45.5 29.2201C45.5345 30.8767 44.9395 32.4848 43.835 33.7201C43.4758 34.1674 43.3011 34.7351 43.3464 35.3069C43.3918 35.8788 43.654 36.4118 44.0792 36.7968C44.5045 37.1819 45.0608 37.39 45.6344 37.3785C46.208 37.367 46.7555 37.1369 47.165 36.7351C48.4044 35.3189 49.2686 33.6143 49.6786 31.7776C50.0886 29.9409 50.0313 28.0307 49.512 26.2218C48.9926 24.413 48.0277 22.7633 46.7058 21.4239C45.3838 20.0845 43.7469 19.0981 41.945 18.5551V18.4651Z" fill="#C3C4F6"/>
<path d="M26 49.4702C26 50.2986 26.6716 50.9702 27.5 50.9702C28.3284 50.9702 29 50.2986 29 49.4702L26 49.4702ZM28.5607 27.4096C27.9749 26.8238 27.0251 26.8238 26.4393 27.4096L16.8934 36.9555C16.3076 37.5413 16.3076 38.491 16.8934 39.0768C17.4792 39.6626 18.4289 39.6626 19.0147 39.0768L27.5 30.5915L35.9853 39.0768C36.5711 39.6626 37.5208 39.6626 38.1066 39.0768C38.6924 38.491 38.6924 37.5413 38.1066 36.9555L28.5607 27.4096ZM29 49.4702L29 28.4702L26 28.4702L26 49.4702L29 49.4702Z" fill="#C3C4F6"/>
</svg>
